<svg xmlns="http://www.w3.org/2000/svg" width="369.969" height="81" viewBox="0 0 369.969 81">
  <defs>
    <style>
      .cls-1 {
        fill: #0b2f5b;
        fill-rule: evenodd;
      }
    </style>
  </defs>
  <path id="形状_1" data-name="形状 1" class="cls-1" d="M405.88,56.657c0.34-.289-0.212-0.523-0.281-0.8,0.021,0.03-.058,0-0.077.018-1.739-2.5-6.4-2.245-9.272-3.443,0,0.045-.139.081-0.118,0a6.526,6.526,0,0,1-.937-0.265,1.028,1.028,0,0,1-.2-0.733,0.6,0.6,0,0,0,.061-0.028c-0.069-1.051.79-1.506,0.775-2.413,0.169-1.088.906-2.062,0.559-3.216a0.222,0.222,0,0,0,.037-0.1,3.755,3.755,0,0,1-.2-1.269c-0.081-.019-0.058-0.23,0-0.269-0.127-1.99-2.11-3.174-3.123-.929-0.133,1.351-1.963,3.622-3.4,2.909,0.021-.07-0.06-0.07-0.038-0.149-0.611-1.195.286-3.141,1.888-2.176a3.949,3.949,0,0,0,.457-1.444c-0.324-.446-1.085-0.073-1.572-0.029-0.487-.516.248-2.4-0.576-2.816a1.087,1.087,0,0,0-.555-0.466c0.055-.063-0.023-0.063-0.04-0.089a0.139,0.139,0,0,1-.2-0.02c-1.992,1.273-1.622,4.735-2.128,6.675-0.838,2.567,3.256,2.276,1.154,4.282-0.157.478-.563,0.638-0.475,1.119-0.282.774-.413,2.318,0.655,2.56a2.135,2.135,0,0,1-1.414.764,0.6,0.6,0,0,1-.993-0.563,9.786,9.786,0,0,1-.078-1.33,0.3,0.3,0,0,0-.024-0.352c0.138-.085.066-0.148,0-0.241a0.26,0.26,0,0,0,0-.335,0.872,0.872,0,0,0,.081-0.484,7.887,7.887,0,0,0-.081-1.137c-0.081-.778.366-1.748-0.156-2.392-0.354-.832-1.662-1.1-1.453.176-0.1,0,.021.238-0.08,0.238a0.574,0.574,0,0,0,.041.208,16.062,16.062,0,0,0-.916,7.17c-0.452.479-.825-0.224-0.917-0.524-0.736-.49-0.509-1.769-0.515-2.522-0.8-1.442-.449-3.456-0.858-4.977-0.808-.905-1.275-0.364-1.907.338a49.2,49.2,0,0,0,.079,7c0.229,0.327.149,0.83,0.376,1.195a2.582,2.582,0,0,1,.618.6c0.121-.012.081,0.079,0.178,0.059a0.418,0.418,0,0,0,.021.078,0.357,0.357,0,0,1,.358.179,4.931,4.931,0,0,1-.716.3c-1.214.694-2.762-.155-4.1,0.75-0.862.916-1.919-1.731-2.507-.306a9.571,9.571,0,0,0-1.036,1.226,1.062,1.062,0,0,1-.319.484,2.407,2.407,0,0,1-.337.566c-0.125.149-.347,0.282-0.515,0.486,0.021,0,.021,0,0.039.028a1.2,1.2,0,0,0-.239.315c0.12,0.01,0,.059.081,0.12a0.3,0.3,0,0,0-.141.067,21.375,21.375,0,0,1-1.131,3.227c-0.265.454-.338,0.987-0.559,1.282,0.079,0.094-.126.152-0.04,0.238a2.29,2.29,0,0,0-.417,1.192,3.519,3.519,0,0,0-.259.582,2.9,2.9,0,0,1-.041.393,0.121,0.121,0,0,1-.079.05c-0.611,2.761-.88,5.5,3.024,4.678,0.066,0.04.177-.013,0.116,0.07,1.218,0.151,1.487-.839,2.172-1.3,0.721-.757.413-1.487,0.616-2.472,0.162-1.923.788-3.6,0.817-5.62,0.1-.012-0.016-0.137.078-0.157a1.477,1.477,0,0,1-.02-0.277,13.212,13.212,0,0,1,.339-1.446c-0.127-.036.108-0.25,0.159-0.352-0.112-3.782,1.983,1.961,3.719-.932a0.322,0.322,0,0,0,.1-0.021c2.082-2.613,6-2.875,9.249-3.52,2.554-1.825,5.427-2.061,8.594-1.7,9.792,1.9,3.358,3.242-1.572,4.767-0.533.193-1.807,0.407-2.647,0.582-0.063-.22-0.354.161-0.316-0.108a1.712,1.712,0,0,1-.86-0.12,29.378,29.378,0,0,0-4.693-.522c-1.585-.533-2.626.763-3.778,1.574a13.939,13.939,0,0,1-1.352.809c-0.082.129-.2,0.2-0.278,0.338,1.215,0.474,4.111-.932,4.117.473-0.1-.03-0.061.09-0.16,0.059-0.3.755-1.256,0.463-1.611,1.177a2.585,2.585,0,0,0-.04.269c-0.644.287-.075,1.616-0.577,1.919-1.608,1.1-4.079.515-5.312,2.166a19.216,19.216,0,0,0,.8,5.052c1.5,4.188,8.071.308,11.017,2.759,2.249,0.508,2.649-2.876,2.969-4.414a0.525,0.525,0,0,1,.016-0.39,0.9,0.9,0,0,1,0-.387c0.3-.816-0.666-1.9-0.355-2.237,2.094-.574,2.854,1.936,4.3,1.327-0.078-.081.021-0.081,0-0.16a16,16,0,0,0,1.192-1.808c0.819-1.782-1.812-2.008-2.983-2.682-0.694-.1-1.4-0.629-2.047-0.722a1.31,1.31,0,0,0-.639-0.15c-1.841-.9-3.879,3.027-3.32-1.028,0.1-.021.079-0.17,0.176-0.2,2.2,0.577,2.164-2.493,3.9-2.452a32.958,32.958,0,0,0,7-1.979c1.807-.129,4.105.1,5.37-1.136a2.435,2.435,0,0,1,.041-0.255c0.07-.1.219-0.163,0.1-0.29A0.141,0.141,0,0,0,405.88,56.657Zm-14.2-7.567a0.323,0.323,0,0,1-.178.317c0.14,0.158-.18.228-0.143,0.059a1.22,1.22,0,0,1-.437-0.305C391.221,48.2,391.539,48.135,391.675,49.09Zm0.676,3.522a2.267,2.267,0,0,1-1.134-.08,1.9,1.9,0,0,0-.041-0.85c0.041-.058.06-0.069,0-0.127,0.212-1.7,1.7-1.172.836,0.283a1.53,1.53,0,0,0,.519.616A0.841,0.841,0,0,0,392.351,52.612Zm2.05-7.122a7.179,7.179,0,0,1-.418,1.792,0.575,0.575,0,0,1,.041.186c-0.041.012-.06,0.062-0.082,0.062,0.116,0.316-.491.555-0.534,0.3-0.334-.346-1-0.833-1.138-1.032a8.951,8.951,0,0,1,1.812-1.086C394.063,45.5,394.529,45,394.4,45.49Zm-5.115,23.087c2.065,2.633-1.29,4.681-3.816,4.392v0.079c-0.53-.3-1.306.036-1.87-0.258a5.816,5.816,0,0,1-1.473-.5,0.224,0.224,0,0,1,0-.118,0.437,0.437,0,0,1-.4-0.492,2.951,2.951,0,0,1-.438-0.783,15.521,15.521,0,0,0,.618-1.819,0.514,0.514,0,0,1,.141-0.029C383.838,67.578,387.687,66.543,389.286,68.576ZM165.015,57.658c0.533-.438.922-1.349,1.422-1.662,0.536-.425.4-1.062-0.326-0.752-0.321.362-.791,0.49-1.115,0.893-0.141-.063-0.068.108-0.258,0.057-0.118-.169.047-0.12,0-0.355,0.157,0,.049-0.248.079-0.365,0.041,0.009.041-.022,0.07-0.012a0.489,0.489,0,0,1,.5-0.495,7.942,7.942,0,0,0,.805-0.6,0.217,0.217,0,0,0,.218-0.155,0.984,0.984,0,0,0,.7-0.505c0.4-.091.184-0.807,0.416-1.039a0.392,0.392,0,0,1,.118-0.376,0.543,0.543,0,0,1,.018-0.159,0.211,0.211,0,0,1-.1-0.049,0.742,0.742,0,0,0-.287-0.564c-2,.259-1.933-1.058-1.76-2.649a7.918,7.918,0,0,0,.287-1.624c0.13,0,.065-0.139.07-0.218a2.173,2.173,0,0,0,.159-0.732,12.165,12.165,0,0,0,.479-2.668,9.617,9.617,0,0,0-.2-1.406,3.765,3.765,0,0,1-.356-1.1,3.275,3.275,0,0,0-.588-0.663c-1.068-.878-2.992-0.2-4.347-0.375-0.494.947,0.2,2.775,0.041,3.8-0.128,1.065-.2,2.512-0.279,3.71a0.259,0.259,0,0,0-.079.03,31.223,31.223,0,0,1-.5,4.509c0.013,0.139,0,.289.023,0.394-0.042,0-.049.042-0.1,0.042,0.413,1.492-1.044,1.712-2.068,2.156a1.053,1.053,0,0,1-.668.16c-0.41.493-1.467,0.189-1.411,1.008a1.492,1.492,0,0,0,.844.732c0,0.119.17,0.14,0.16,0.238a4.71,4.71,0,0,1,.538.2,3.536,3.536,0,0,0,1.349.435c-0.013.172,0.249,0,.22,0.16,0.086,0.022.285-.062,0.279,0.06,0.707,0.032.462,1.035,0.507,1.6a0.275,0.275,0,0,1-.091.022,1.848,1.848,0,0,1-.137,1.127,0.59,0.59,0,0,1,.081.455,4.876,4.876,0,0,0-.081,1.018c-1.326,1.792-3.355,3.175-4.794,4.819-0.14.516-.7-0.049-1.054,0.158-0.692-.54-1.4.413-1.573,1.128a0.383,0.383,0,0,0-.08.037c-0.04.51,0.53,0.671,0.438,1.2a2.948,2.948,0,0,1-1.261,1.69,15.415,15.415,0,0,1-3.314,3.3c-0.251.058-.673,0.079-0.656-0.3a1.82,1.82,0,0,1-.219-0.95,5.874,5.874,0,0,1-.438-2.451c-0.346-.53-0.014-1.347-0.914-0.972a5.071,5.071,0,0,0-.139.93,1.108,1.108,0,0,0-.058.713,0.7,0.7,0,0,0-.091.038c-0.063,1.472-.4,3.014-0.546,4.392,0.1,0.024-.01.248-0.083,0.257v0.21c0.211,0.032-.078.118,0,0.275a1.353,1.353,0,0,0,.29,1.591c0.058,0.767.809,1.163,1.044,2.037,0.272,0.554.736,0.84,1.053,1.465a1.506,1.506,0,0,0,1.206.465c0.5-.361.457-1.2,0.8-1.553-0.02-.128.022-0.267-0.008-0.4,0.089-.019.089-0.179,0.048-0.286,0.2-1.245.417-2.152,0.577-3.443,0.039,0.009.039-.028,0.08-0.018,0.385-1.858,2.35-3,2.964-4.7a5.22,5.22,0,0,1,.557-0.613,0.91,0.91,0,0,1,.149.426,3.67,3.67,0,0,0,1.979,1.986c0.308,0.327.559-.281,0.728-0.373,0.048-.492.173-0.88,0.2-1.445,0.052,0.019.052-.019,0.081,0,0-.142-0.029-0.317.09-0.327-0.041-.079,0-0.229-0.041-0.308,0.187-.009-0.016-0.232.178-0.265-0.027-.053-0.053-0.223.059-0.213a0.362,0.362,0,0,0-.02-0.183c0.076-.025.143-0.066,0.064-0.131a2.235,2.235,0,0,1,.445-0.631c-0.01-.079-0.01-0.151.079-0.141V69.23a4.2,4.2,0,0,1,.488-0.764c0.88-1.711,1.122-.891.835,0.706-0.217.059,0.217,0.575-.139,0.66a1.1,1.1,0,0,1,.019.188,7.477,7.477,0,0,0-.076,1.83,2.286,2.286,0,0,0,.155,1.116,7.375,7.375,0,0,1,.32,2.493c0.081,0.029.12,0.077,0.081,0.158,0.253,0.123.11,0.823,0.474,0.733,0.7,0.9,1.506.736,2.568,0.683a2.892,2.892,0,0,1,.975-0.436,3.631,3.631,0,0,1,.935-0.59,59.908,59.908,0,0,0,.2-8.281,18.78,18.78,0,0,0,.083-4.1c0.169-1.407.185-3.47,0.227-5.035,0.2-.112.058-0.572,0.373-0.674-0.049-.094.009-0.109,0.055-0.168A0.543,0.543,0,0,1,165.015,57.658Zm108-3.324a2.613,2.613,0,0,0-.713-0.774c-0.287.024-.149,0.373-0.5,0.375a0.9,0.9,0,0,0-.159.367,6.326,6.326,0,0,0-.714.911,0.361,0.361,0,0,1-.221.345,0.216,0.216,0,0,0,.02.12c-0.817,1.271-1.535,1.029-1.313-.436-0.412-2.328,2.682-2.818,3.839-3.661,0.308-.268,1.161-0.3,1.237-0.859a1.61,1.61,0,0,0,.455-1.179c-1.747.261-3.309-.163-4.774,1.091-0.935,1.421-.827-0.649-0.616-1.4-0.066-.822.206-1.326,0.159-2.113a2.193,2.193,0,0,0,.138-0.861c0.314-.069-0.143-0.435.1-0.4a12.51,12.51,0,0,0,.081-1.3c0.532-1.18-.448-2.048-0.536-3.146-0.061-.009-0.139-0.057-0.081-0.14a0.539,0.539,0,0,1-.217-0.356c-0.8-1.52-1.8-.129-3.026-0.038-0.41.848,1.084,0.441,1.076,1.177a8.571,8.571,0,0,1,.157,3c0.125-.016.109,0.118,0,0.09,0.08,0.615-.137,1.236-0.079,1.81a5.035,5.035,0,0,0-.139,1.76c-0.039,0-.057.039-0.1,0.039,0.042,0.083-.02.239,0.019,0.329-0.267.2,0,.673-0.236,0.976a9.434,9.434,0,0,0-.159,1.8c-0.041,0-.023.059-0.081,0.029,0.029,0.3-.2.368-0.161,0.723a1.152,1.152,0,0,1-.912.67c0.02,0.09-.083.081-0.162,0.074a10.382,10.382,0,0,0-1.331.511c-0.426.2,0.151-1.6-.5-0.743-0.4.307-.476,0.76-0.916,1.052-0.659.116-1.348,0.811-1.87,0.564-0.178-.068-0.421.241-0.457,0-0.18-.032-0.4.087-0.419-0.089a4.171,4.171,0,0,1-.574-0.041c-0.435-.343-1.062-0.531-1.334.1a0.246,0.246,0,0,1,0,.118,1.281,1.281,0,0,0-.321.534,5.235,5.235,0,0,1-.3,1.068,2.041,2.041,0,0,0-.077.576,0.756,0.756,0,0,1,.138.443,0.265,0.265,0,0,1,.2.167,9.25,9.25,0,0,1,1.752,1.158,2.236,2.236,0,0,0,.378.583c0.252,0.157.387,0.349,0.614,0.474,0.651,0.088,1.052-.87,1.157-1.314a19.351,19.351,0,0,1,2.186-1.75,0.694,0.694,0,0,1,.577-0.477,9.7,9.7,0,0,0,.935-0.5c0.916-.307.413,2.521,0.558,3.57-0.248.116-.043,0.76-0.256,0.912,0.019,0.242-.13.617-0.122,0.83-0.135.027-.123,0.186-0.079,0.3-0.582.66-1.585,1.35-2.229,2.125a0.85,0.85,0,0,0-.218.189,1.482,1.482,0,0,0-.854.581c-0.746.405-1.751,1.143-2.548,1.612a0.986,0.986,0,0,1-.34.049,0.46,0.46,0,0,1-.378.168,8.674,8.674,0,0,1-1.609,1.019,7.736,7.736,0,0,1-1.532.8c-0.5.595,0.843,0.787,1.073,1.107,1.209,0.111,1.637-.467,2.687-0.436,0-.168.3-0.034,0.457-0.058a8.917,8.917,0,0,1,2.587-.376c1.259-.731,2.768-3.285,3.361-1.149a6.929,6.929,0,0,1-.021,2.988,2.721,2.721,0,0,0,0,2.107c0.338,0.369.256,1.047,0.578,1.5a0.886,0.886,0,0,0,.3.823c0.047,0.2.151,0.923,0.438,0.889a1.865,1.865,0,0,0,1.175.821c0.065,0.264.47-.125,0.616-0.255,0.389-.61.048-1.744,0.141-2.247,0.321-3.17-.388-6.406.078-9.555a0.555,0.555,0,0,1-.078-0.473,3.253,3.253,0,0,1,.178-0.477c-0.018-.549.134-0.9,0.138-1.285,0.781-1.072,2.507-2.047,3.084-3.167a0.226,0.226,0,0,0-.018-0.116,0.12,0.12,0,0,0,.078-0.157,1.924,1.924,0,0,0,.481-1.03,0.47,0.47,0,0,0,.076-0.019c-0.057-.275.1-0.391,0.057-0.634a1.2,1.2,0,0,0,.241-0.246,2.454,2.454,0,0,0-.021-0.556,0.4,0.4,0,0,1,.1-0.029,1.71,1.71,0,0,1,0-.792C273.148,55,273.316,54.525,273.012,54.334ZM292.628,75.5a2.88,2.88,0,0,0,1.134-1.5,0.772,0.772,0,0,1,.179-0.2c-0.122-.819.484-1.294,0.439-2.153,0.475-.413-0.031-1.48.436-2-0.06-.058,0-0.19-0.06-0.256a11.433,11.433,0,0,0,0-5.084,1.513,1.513,0,0,0,.06-0.167c-0.162-.588-0.814-0.452-1.134-0.715-0.464-.3.883-1.217,1.173-1.352,0.638-.786,1.416-0.941,2.09-1.8a1.021,1.021,0,0,0,.537-0.4c-0.021-.1,0-0.119-0.021-0.206,0.04,0.008.04-.041,0.081-0.031a5.085,5.085,0,0,0-.018-0.752,1.411,1.411,0,0,0-.161-1.4,0.415,0.415,0,0,0,.041-0.149,0.145,0.145,0,0,1-.12-0.12c-1.259.195-2.437,1.945-3.444,1.969-0.384.264-.792-0.514-0.238-0.554a0.523,0.523,0,0,1,.16-0.466c-0.2-.477,1.044-1.168,1.333-1.708a0.706,0.706,0,0,1,.377-0.162,16.474,16.474,0,0,1,1.214-1.431c-0.018-.032,0-0.09-0.018-0.12a0.57,0.57,0,0,0,.258-0.5,2.925,2.925,0,0,0,.695-1.166,0.289,0.289,0,0,0,.139-0.307c0.119-.019.1-0.057,0.08-0.159a0.657,0.657,0,0,0,.318-0.525c0.11-.054.1-0.128,0.1-0.267a0.159,0.159,0,0,0,.081-0.02,2.048,2.048,0,0,0-1.394-1.85,1.762,1.762,0,0,0-.359-0.259c-1.231.507-1.524-.469-0.874-1.157,0.22-.7.814-1.125,0.956-1.8,0.041,0,.041-0.039.08-0.019,0.542-.876,1.724-0.657,2.225-1.5a2.994,2.994,0,0,0-.158-1.849c-0.3-.432-2.069-3.162-2.445-1.831-0.151,0-.073.214-0.081,0.315a0.184,0.184,0,0,1-.1.031,2.114,2.114,0,0,1,0,.365,2.332,2.332,0,0,0-.354.772,3.045,3.045,0,0,1-.441.692,0.551,0.551,0,0,1,.021.256c-0.039-.019-0.039.04-0.1,0.031,0.062,0.087,0,.138-0.039.208a7.876,7.876,0,0,1-.8,1.484,0.42,0.42,0,0,1-.1.019,0.761,0.761,0,0,0,.018.216,6.481,6.481,0,0,0-1.191,1.575c-0.613.485-.833,1.094-1.514,1.633a17.671,17.671,0,0,1-1.971,2.234,3.3,3.3,0,0,1-.794.928c-0.18.755-1.522,1.116-1.614,1.624-0.057-.02-0.057.041-0.1,0.019a0.532,0.532,0,0,0,.018.187c-0.1.091-.309,0.195-0.236,0.328a1.994,1.994,0,0,0-.4.632c-0.94.717-.433,1.752-0.1,2.648,0.342,0.324.334,0.879,0.655,1.249,0.123,0.5.818,1.5,0.439,1.86a1.007,1.007,0,0,1-.4.574c-0.274.656-1.078,0.921-.932,1.908a0.659,0.659,0,0,1,.159.622c0.272,0.546-.07,1.013.079,1.565,0.128-.017.091,0.156,0.059,0.214,0.1,0.041.119,0.113,0.2,0.143a0.5,0.5,0,0,0,.237.552c0.518,1.151,1.714,1.789,2.087.3,0.073,0,.275-0.253.258-0.008,0.273-.809.265-1,0.319,0.209a0.115,0.115,0,0,1-.079.017,5.322,5.322,0,0,1-.24,1.96,1.127,1.127,0,0,0,.021.278,0.113,0.113,0,0,1-.119.034,2.279,2.279,0,0,1-.04.687c-0.183.011-.083,0.241-0.1,0.394a0.437,0.437,0,0,1-.079.032,2.732,2.732,0,0,1-.062.58c-0.178.034-.06,0.324-0.079,0.475-0.5.788,0.588,1.884,1.1,2.583,0.309,0.651.416,1.589,0.953,1.986C291.583,75.938,292.563,76.219,292.628,75.5Zm52.876-3.12a0.751,0.751,0,0,0,.5.287,3.294,3.294,0,0,0,2.088.348c1.614-.129,3.534.069,5.349-0.112,0.5,0.327,1.193-.213,2.029-0.166a8.78,8.78,0,0,0,2.986-1.326c0.724-.392,2.366-0.512,2.067-1.878a0.777,0.777,0,0,1-.257.018c-0.01-.267-0.52.086-0.5-0.188-2.036-.448-3.507-0.9-5.548-1.332-2.025-.028-2.792-0.406-4.876-0.347a3.819,3.819,0,0,0-.5-0.365c-0.428,0-.592-0.419-1.013-0.428a0.743,0.743,0,0,1-.118-0.186,14.105,14.105,0,0,1-3.344-2.225c-0.473-.629-3.9-2.2-2.785-2.928,1.383-.767,3.147-0.951,4.775-1.683,0.965-.4,1.778-0.559,2.788-0.989,0.381-.284.862-0.4,1.353-0.73a1.5,1.5,0,0,1,.556-0.514c0.016-.094-0.024-0.175.1-0.177,0.352-.694.647-1.092,0.217-1.833a6.322,6.322,0,0,0-.517-0.612,2.9,2.9,0,0,0-1.212-.821c-0.086-.235-0.692-0.044-0.8-0.276a2.727,2.727,0,0,0-1.451.451c-0.512.043-.656,0.38-1.192,0.438a10.684,10.684,0,0,1-2.882.89c-1.176.789-1.235-.095-1.076-1.328a4.187,4.187,0,0,0,.376-1.5c0.209-.007.105-0.206,0.12-0.357a1.041,1.041,0,0,1,.2-0.118c-0.021-.136-0.066-0.387.1-0.345a4.562,4.562,0,0,0,.081-0.683c0.337-1.171.2-2.541,0.676-3.6-0.157-1.445.595-2.474,0.1-3.6-1.29-2.112-3.513-.758-3.8.928-0.433.4-.3,1.246-0.619,1.732,0,0.136.105,0.455-.1,0.433a17.857,17.857,0,0,0-.281,3.633,1.289,1.289,0,0,0-.079.871c-0.9,1.8.932,5.692-1.509,5.953-1.714.769-3.189,1.192-4.755,1.9-2.954.849-2.891,1.571-.239,2.649,1.309,0.537,4.613-.908,4.019.879a2.886,2.886,0,0,1-.219.209,0.333,0.333,0,0,1-.18.445,0.239,0.239,0,0,1-.2.338,0.727,0.727,0,0,1-.376.641c0.04,0.05,0,.159.04,0.2a0.161,0.161,0,0,1-.123.049c0.011,0.113,0,.183-0.118.189,0.027,0.2-.031.463-0.258,0.416a0.521,0.521,0,0,0-.1.445,1.14,1.14,0,0,0-.219.128,0.56,0.56,0,0,1-.281.532c0.023,0.121,0,.209.023,0.307a0.847,0.847,0,0,0-.376.612c-0.1.032-.12,0.129-0.223,0.16a5.214,5.214,0,0,1-4.275,2.54c-0.811.426-7.07-.364-4.971,1.247a7.405,7.405,0,0,1,2.108,1.446,0.467,0.467,0,0,1-.481.58c-0.065.322-.906,0.083-0.473,0.537a5.633,5.633,0,0,1,1.99.634,14.649,14.649,0,0,0,3.24-.277c0.547,0.146,1.353-.471,2.108-0.436,0.13-.353.614-0.123,0.776-0.358,1.264-.7,2.946-1.868,3.421-3.275,0.159-.029.159-0.185,0.32-0.218a0.262,0.262,0,0,1,.2-0.352,0.9,0.9,0,0,1-.02-0.241,0.719,0.719,0,0,0,.1-0.019,2.26,2.26,0,0,0,.277-0.69c0.1-.011.119-0.04,0.08-0.161,0.06,0,.081-0.039.139-0.039-0.126-.527.444-0.686,0.438-1.106,0.71-.8,1.218.868,1.931,1.223a31.325,31.325,0,0,0,2.781,2.1C344.247,71.392,344.667,72.2,345.5,72.382Zm-29.54-3.628a0.836,0.836,0,0,0,.1-0.039c0.018-.265-0.065-0.578-0.057-0.732a2.987,2.987,0,0,0-.916-1.464,0.215,0.215,0,0,1-.319-0.159c-0.34-.045-0.511-0.355-0.817-0.355a0.505,0.505,0,0,0-.418-0.259c-0.237-.372-0.907-0.132-1.274-0.5a2.323,2.323,0,0,1-.118-1.163c-0.039-.07,0-0.2-0.039-0.259a0.154,0.154,0,0,1,.1-0.04c-0.092-.226.164-0.228,0.06-0.455a7.7,7.7,0,0,1,1.831-1.937c-0.093-.221.226-0.293,0.14-0.554,0.079-.019.079-0.1,0.18-0.129,0.11-1.086-1.191-1.17-1.574-1.911a2.607,2.607,0,0,1-.2-0.284,0.17,0.17,0,0,0,0-.191c0.1,0,.1-0.095.2-0.095,0.256-1.3-.405-3.284.6-3.829,0.257-.033.633,0,0.953-0.013a5.757,5.757,0,0,0,3.444.874c0.019-.186.925-0.015,0.792-0.358a0.543,0.543,0,0,0,.259-0.57c0.159-.025.07-0.311,0-0.369,0.041-.087-0.019-0.156.02-0.227-0.477-.52-0.838-1.128-1.49-1.047-1.575-1.084-6.589.654-6.168-2.2,0.06,0.022.041-.04,0.08-0.028a1.375,1.375,0,0,1,0-.287c0.04,0.02.04-.039,0.081-0.019a2.861,2.861,0,0,1,.5-0.951c0.064-.457.543-0.74,0.6-1.213a1.4,1.4,0,0,0,.238-0.261c0-.045.021-0.1-0.019-0.105,0.228-.24.413-0.626,0.677-0.862,0.068-1.018.274-2.07-.437-2.718-0.14.017-.221,0-0.341,0.017-0.988-.244-1.831,1.146-2.764,1.4-1.721,1.05-3.232,2.188-4.992,3.049a0.323,0.323,0,0,1-.317.158,3.649,3.649,0,0,1-.859.572,3.837,3.837,0,0,0,.082,1.14c-0.129-.01-0.065.091-0.1,0.146,0.06,0.029.14,0.06,0.1,0.159a0.109,0.109,0,0,1,.059.166,0.638,0.638,0,0,0,.321.168,1.121,1.121,0,0,0,.8.32,1.112,1.112,0,0,1,.258.176c0.355,0.025.679-.166,0.515-0.554,0.209-.344-0.16-0.976.281-1.326a9.148,9.148,0,0,1,3.359-2.689c3.1-2.077.347,1.894-.5,2.87,0.089,0.1-.1.164-0.158,0.236-0.512.812-1.789,1.892-2.427,2.742a9.355,9.355,0,0,1-.738.908,8.026,8.026,0,0,0-1.293,1.225,0.808,0.808,0,0,0-.536.613,10.319,10.319,0,0,1-2.943,2.374c-0.264.2-.54,0.569-0.814,0.753,0.123,0.08-.006.111-0.061,0.126,0.408,0.6,1.573.249,2.267,0.239,0.661-.527,1.483-0.267,2.17-1.157a3.368,3.368,0,0,1,.637-0.791c0.449-.353,1.709-2.145,2.126-1.076-0.3.892,0.5,2.924-.854,2.927-0.314.164-.593,0.412-1.034,0.623a14.371,14.371,0,0,0-2.647,2.471c0.039,0.052,0,.1.039,0.151-0.455.421-.538,0.824-0.975,1.166a1.49,1.49,0,0,1-.556.714,3.5,3.5,0,0,0,.321.649,0.837,0.837,0,0,1,.2.142,1.857,1.857,0,0,1,.038.327,10.861,10.861,0,0,1,.975,1.034c1.141,0.052,2.237-.637,3.084-0.529a0.715,0.715,0,0,1,.616.11,6.036,6.036,0,0,1,.4,1.095c-0.236.2-.653,0.553-0.794,0.355a2.569,2.569,0,0,0-1.79.664,2.311,2.311,0,0,0-.816.505c-0.732.368-.993,2.479-0.257,2.65,1.192,1.171,2.046,2.089,4.177,1.672a1.727,1.727,0,0,1,.893-0.159,21.008,21.008,0,0,0,2.887-.97,3.679,3.679,0,0,1,1.252-.2c-0.014-.253.641,0.1,0.477-0.226,0.1-.022.118-0.178,0.219-0.08,0.126-.437.821-0.191,0.735-0.612,0.657-.306,1.159-0.918,1.91-1.289A0.908,0.908,0,0,0,315.964,68.754Zm-61.451.433a2.494,2.494,0,0,0-.914.713c0.044,0.131-.378.711-0.618,0.357,0.041-.009,0-0.069.02-0.1a1.619,1.619,0,0,1-.02-1.01,0.965,0.965,0,0,0,.161-0.683c0.123,0.008.175-.321,0.137-0.422,0.1-.014.107-0.069,0.1-0.16,0.185,0,.094-0.253.242-0.23a1.129,1.129,0,0,0-.021-0.275,0.67,0.67,0,0,0,.157-0.672c0.209,0.038-.018-0.269.159-0.228A2.823,2.823,0,0,0,254,65.689a0.106,0.106,0,0,1-.081-0.138c0.04,0.007.021-.052,0.081-0.029a9.673,9.673,0,0,0-.081-1.138c0.04,0.01.04-.042,0.063-0.042a29.506,29.506,0,0,1-.063-5.133c0.021-.308-0.017-0.6-0.017-0.947-0.168-.9-0.2-2.5-0.379-3.732a2.686,2.686,0,0,0,0-.947,26.365,26.365,0,0,0,.018-8.074c-0.36-.6-0.874-0.477-1.39-0.733a2.272,2.272,0,0,0-1.911.14c-0.178.23-.488,0.126-0.678,0.376,0-.041-0.077,0-0.118-0.02-0.123.329-.757,0.6-0.757,0.938a3.612,3.612,0,0,0-.912,1.255,1.613,1.613,0,0,0-.538,1.171,2.373,2.373,0,0,1-1.015.77c-0.113.1-.622,0.383-0.615,0a1.834,1.834,0,0,1-.18-0.119,1.122,1.122,0,0,0-.119-0.453,1.337,1.337,0,0,1-.379-0.732c-0.455-1.524-2.149-.515-2.944-0.04a0.171,0.171,0,0,0-.1.018c0,0.1.078,0.369-.061,0.366,0.006,0.735-.384,1.092-0.378,1.731a0.519,0.519,0,0,1-.1.041,0.424,0.424,0,0,0,.039.167,0.218,0.218,0,0,1-.118.048c0.039,0.1-.021.219,0.018,0.335a0.274,0.274,0,0,1-.08.024,1.33,1.33,0,0,0,.023.413c-0.322.259-.076,1.224-0.5,1.661,0.121,0.577-.271.736-0.2,1.276-0.058-.02-0.04.05-0.1,0.032a0.472,0.472,0,0,1-.16.513,2.423,2.423,0,0,1-.062.554,0.239,0.239,0,0,0-.1.04c0.018,0.158.018,0.435,0.018,0.554a2.541,2.541,0,0,0-.217.871c-0.273.311-.174,0.977-0.417,1.285,0.008,0.078.008,0.216,0.008,0.269a0.078,0.078,0,0,0-.079.027,1.369,1.369,0,0,1-.169.871,4.5,4.5,0,0,0-.048.475,0.784,0.784,0,0,0-.08.6c-0.359.261-.056,1.2-0.33,1.574,0.074,0.256-.119.432-0.049,0.691a0.328,0.328,0,0,0-.1.043c0,0.58-.166,1.013-0.138,1.65a0.223,0.223,0,0,1-.1.029,1.21,1.21,0,0,1,.02.337c-0.206.01-.039,0.528-0.25,0.534-0.013.128,0.123,0.527-.079,0.512a1.172,1.172,0,0,1-.157.67,1.091,1.091,0,0,1-.08.656,19.488,19.488,0,0,0-.16,2.1c0.4,0.637,1.138-.055,1.779.02,0.282-.119,1.619-0.258,1.326.154,0.076,0.236-.2.308-0.14,0.573a0.875,0.875,0,0,0-.22.637,3.132,3.132,0,0,0-.3,1.462,0.288,0.288,0,0,1-.121.048c0.011,0.106.1,0.419-.058,0.427a1.3,1.3,0,0,1,.021.436,9.458,9.458,0,0,0-.459,3.719c0.037,0.765,1.475-.255,1.352-0.626,0.06,0.012.042-.037,0.1-0.027a2.136,2.136,0,0,1,.9-0.932c0.137-.117.031-0.259,0.24-0.217,0.311-.682,1.128-1.163,1.229-1.917,0.546-.975,1.111-2.421,2.748-2.435a0.867,0.867,0,0,0,.5.238c1.251,0.752,2.5,2.358,3.817,2.987a3.617,3.617,0,0,0,1.731.456c0.729,0.111,2.534.335,2.009-1.227C253.691,71.519,254.853,70.36,254.513,69.187Zm-4.076.143a5.309,5.309,0,0,0-1.673-.34c0.021-.179-0.288-0.066-0.376-0.074a6.517,6.517,0,0,0-1.716-.6,2.394,2.394,0,0,1,.1-1.71,0.9,0.9,0,0,1-.021-0.338c0.565-.8,1.841-1.137,2.6-1.531,1.026-.663.224,2.979,1.078,3.679a1.428,1.428,0,0,1,.4.852C250.707,69.258,250.5,69.581,250.437,69.33ZM250.6,53.956c0.021,0.021-.02.082,0.021,0.082a3.185,3.185,0,0,1-.18.453c0.019,0.039,0,.139.078,0.139-0.179.229,0.105,0.606-.138,0.792a7.976,7.976,0,0,0,.018,1.937c-0.247,1.26-.038,3.086-0.4,4.474-0.039,0-.021.056-0.078,0.038a3,3,0,0,1-.082.871c-0.277.681-1.384,0.455-1.95,1.1a0.336,0.336,0,0,0-.3.15,1.919,1.919,0,0,0-.935.512,1.894,1.894,0,0,0-.755.437,6.324,6.324,0,0,1-1.392.376c-0.182.057-.54,0.127-0.519-0.217,0.195,0.01-.227-0.728.081-0.9a0.448,0.448,0,0,1,.06-0.466,2.91,2.91,0,0,1,.177-1.511,0.735,0.735,0,0,1-.021-0.211,1.423,1.423,0,0,0,.139-0.79c0.113-.012.12-0.1,0.083-0.207a10.2,10.2,0,0,0,1.034-.166,2.3,2.3,0,0,0,1.432-.564c1.46-.823,2.209-2.343-0.081-1.576-0.727.2-1.3,0.931-2.147,1.069a4.685,4.685,0,0,1,.178-2.847,0.768,0.768,0,0,0,.118-0.545c0.062,0.011.043-.04,0.1-0.029a1.351,1.351,0,0,0,.041-0.477,0.772,0.772,0,0,0,.16-0.68,0.752,0.752,0,0,0,.119-0.03c-0.023-.1-0.062-0.366.1-0.258,0.374-.283,1.333.253,1.97-0.079,0.953-.338,2.138-2.5.3-1.394-0.1-.02-0.158,0-0.158.07-0.649.253-1.681,0.364-1.294-.454,0.835-1.414.06-.915-0.1-2.03a10.743,10.743,0,0,0,1.653-1.354,3.12,3.12,0,0,1,1.392-2.038c0.062,0.008.141,0.008,0.118-.071a0.183,0.183,0,0,0,.258-0.165c0.779,0.246.766-.4,1.035,0.512a5.142,5.142,0,0,1,.064.773c0.108,0.668,0,1.258.118,1.818C250.56,51.454,251.009,53.067,250.6,53.956Zm-81.064-1.6a11.049,11.049,0,0,1,3.737-2.068c0.9-.188.983-1.481,1.95-1.66a1.968,1.968,0,0,1,.541-0.29,0.919,0.919,0,0,1,.595-0.224,0.556,0.556,0,0,1,.01.077c1.11-.016,2.175.525,3.6,0.288a2.4,2.4,0,0,0,.645-2.68,1.44,1.44,0,0,0-.436-0.306c-0.331.043-.42-0.123-0.768-0.058,0.017-.142-0.12-0.06-0.209-0.081a0.2,0.2,0,0,0-.008-0.079c-0.888-.005-1.443-0.434-2.407-0.057-0.84.351-1.506,1.2-2.389,1.5-0.045.1-.089,0.2-0.215,0.156a2.638,2.638,0,0,0-.53.722,0.5,0.5,0,0,1-.138.093c-0.034.394-.665,0.719-0.679,1.043a12.44,12.44,0,0,1-2.386,2.16c-0.228,0-.424.423-0.656,0.415,0.016,0.1-.079.076-0.159,0.076-0.2.512-1.2,0.76-.826,1.26C169.09,52.8,169.189,52.324,169.532,52.355Zm-19.575-4.688c0.307-.031.23,0.34,0.556,0.375,0.354,0.489.718,0.975,1.1,1.424,0.651,1.659,4.471,1.294,4.923-.532a0.224,0.224,0,0,0,.079-0.032,1.292,1.292,0,0,0-.743-1.274,1.979,1.979,0,0,1-.542-0.614,0.266,0.266,0,0,1-.246-0.161,1.648,1.648,0,0,0-.656-0.2,0.211,0.211,0,0,1-.012-0.079,1.834,1.834,0,0,0-.4-0.059,3.05,3.05,0,0,0-1.078-.307,5.007,5.007,0,0,0-1.488-.276c0-.031-0.021-0.069-0.021-0.09-0.445.038-.81,0-1.176,0.058-0.049-.109-0.212-0.045-0.277.031-0.323-.116-1.13-0.053-0.955.553A3.364,3.364,0,0,0,149.957,47.667Zm48.233,0.458c0.087,0.027.066,0.087,0.079,0.156a2.068,2.068,0,0,0,0,1.325,0.639,0.639,0,0,0,.07.812,4.81,4.81,0,0,1,2.366,1.265c0.987,0.18,1.05-.479,1.09-1.118a1.953,1.953,0,0,0-.335-1.77,5.445,5.445,0,0,0-1.643-1.976c-0.365.035-.623-0.348-0.913,0.009-0.457.019-.332,0.677-0.748,0.88C198.194,47.843,198.347,47.974,198.19,48.125Zm115.028-.933a0.076,0.076,0,0,0,0,.068C313.279,47.29,313.279,47.192,313.218,47.192Zm-0.18.375a0.058,0.058,0,0,0-.058.061A0.059,0.059,0,0,0,313.038,47.567ZM181.728,66.924c0.774-1.635-.408-3.736-0.7-5.251-0.059-.009-0.1-0.05-0.059-0.141-0.172-.453-0.587-0.662-0.795-1.125a4.771,4.771,0,0,0-.7-0.336c-0.828-.147-0.34-0.768-0.317-1.593,0.154-.021.133-0.308,0-0.367,0.037,0,.019-0.058,0-0.071a1.5,1.5,0,0,1,.726-0.83,4.322,4.322,0,0,0,.844-1.018,1.556,1.556,0,0,0,.159-0.066,1.857,1.857,0,0,1,.122-0.338c0.087,0,.068-0.109.157-0.109a7.641,7.641,0,0,1,.578-1.1,0.642,0.642,0,0,1,.278-0.5c0.006-.318.528-0.8,0.168-1.158-2.33-.423-3.279,1.685-4.983,2.84a2.256,2.256,0,0,0-.386.377c-0.282.042-.412,0.592-0.888,0.632a1.991,1.991,0,0,1-.577.376c-0.387.43-.916,0.517-0.9-0.34-0.84-1.565-2.6-4.059-4.308-3.065-0.084-.1-0.073.077-0.159,0.049-0.173.456-.595,0.556-0.277,1.1,0.258-.012.222,0.238,0.118,0.344a0.273,0.273,0,0,1,.289.348c0.431,1.42.04,3.31,0.079,4.905-0.207,1.656-.491,3.392-0.774,5.1a12.773,12.773,0,0,0-.488,2.395,0.716,0.716,0,0,0-.149.5,0.663,0.663,0,0,0-.208.427,0.362,0.362,0,0,0-.2.365c-0.1.026-.1,0.059-0.092,0.165-0.174.069-.106,0.48-0.279,0.515V70.1a0.3,0.3,0,0,0-.068,0c-0.331,1.278.184,2.812,0.2,4.134,0.923,1.1,1.881,2.491,2.628.414a0.416,0.416,0,0,1-.021-0.079,0.463,0.463,0,0,0,.207-0.5,3.7,3.7,0,0,0,.647-1.752c0.1-.006.079-0.12,0.079-0.236a3.329,3.329,0,0,0,.372-1.386,0.141,0.141,0,0,0,.069-0.028,0.931,0.931,0,0,1,.057-0.407c0.3-.5-0.207-1.188-0.018-1.729a0.14,0.14,0,0,1,.089-0.04,1.724,1.724,0,0,0,.08-0.278,3.055,3.055,0,0,0,.279-0.789,0.26,0.26,0,0,0,.087-0.039,0.436,0.436,0,0,1,.14-0.428c-0.1-.224.207-0.368,0.1-0.611,0.167,0.006.02-.19,0.169-0.17V65.955a0.394,0.394,0,0,0,.12-0.325c0.138-.029.078-0.256,0.091-0.405,0.039,0.006.027-.033,0.068-0.011v-0.2A0.115,0.115,0,0,0,173.45,65a0.721,0.721,0,0,0,.061-0.338,2.332,2.332,0,0,1,.316-0.7,4.345,4.345,0,0,1,.041-0.525,0.679,0.679,0,0,0,.139-0.584,0.155,0.155,0,0,0,.081-0.227,1.816,1.816,0,0,1,.136-0.237,0.382,0.382,0,0,0,0-.357,3.867,3.867,0,0,0,.082-1.384,0.249,0.249,0,0,0,.079-0.032,2.378,2.378,0,0,1,.123-0.859c0.018-.1-0.058-0.286.078-0.3a1.442,1.442,0,0,0,.057-0.259c0.4-.336.442,0.586,0.359,0.692,0.125,0.173.37,0,.357,0.295a8.725,8.725,0,0,1,.836.755,0.9,0.9,0,0,1,.436,1.066c0.407,0.532.148,1.462,0.22,2.188-0.1.161,0.068,0.667-.068,0.959-0.356,2.968.276,6.372,0.289,9.081-0.078.009-.1,0.057-0.078,0.157-0.326.258,0.12,0.777-.013,1.157a0.119,0.119,0,0,1,.091.049c0.133,1.908,1.624-.149,2.168-0.691a1.76,1.76,0,0,0,.279-0.694,1.8,1.8,0,0,0,.3-0.74c0.1-.022.081-0.061,0.071-0.15a0.117,0.117,0,0,1,.079-0.009,3.892,3.892,0,0,1,.209-0.721c0.18,0-.039-0.368.149-0.4a2.832,2.832,0,0,1,.209-0.721,4.8,4.8,0,0,0,.2-0.921,0.562,0.562,0,0,1,.08-0.018c0-.081,0-0.159.079-0.151a3.071,3.071,0,0,1,.08-0.5,1.378,1.378,0,0,1,.2-0.712c0.009-.12-0.044-0.243.09-0.257a5.732,5.732,0,0,1,.338-1.366A4.662,4.662,0,0,0,181.728,66.924Zm-35.531-9.8a2.21,2.21,0,0,1,.24.425,0.942,0.942,0,0,1-.041.147,0.153,0.153,0,0,1,.109.07,0.238,0.238,0,0,0-.03.07c0.135,0.061.083,0.178,0.091,0.317a2.26,2.26,0,0,1,.276.721,1.2,1.2,0,0,1,.35.665,0.575,0.575,0,0,1,.3.157,3.414,3.414,0,0,1,1.19.078,0.6,0.6,0,0,1,.52.3c0.538,0.116,1.356.742,2.11,0.4a2.281,2.281,0,0,1-.024-0.257c0.178,0.011.043-.292,0.077-0.437a2.351,2.351,0,0,0,.3-1.818c-0.138-.007-0.083-0.117-0.06-0.2-0.068-.038-0.118-0.06-0.079-0.149-1.182-1.265-2.007-3.135-4.119-2.5-0.429.291-1.638-.181-1.769,0.576-0.2.017,0.15,0.334,0.217,0.416A3.371,3.371,0,0,0,146.2,57.123Zm107.559-1.308v0.112C253.8,55.927,253.777,55.826,253.756,55.815Zm16.194,0.339c-0.018.038,0,.066,0.06,0.066C270.051,56.181,270.01,56.136,269.95,56.154Zm-12.81.82c-0.063-.016-0.036.058-0.041,0.089C257.14,57.084,257.14,57.023,257.14,56.974Zm94.414,0.088c-0.024-.056-0.143-0.056-0.123.03C351.489,57.14,351.53,57.135,351.554,57.062Zm-51.189,9.05A9.315,9.315,0,0,0,298,64.175c-0.751-.115-1.467-0.181-1.73.425a1.52,1.52,0,0,0,.5,1.2c-0.131.183,0.334,0.075,0.219,0.346a1.448,1.448,0,0,1,.716,1,2.675,2.675,0,0,0,1.89.98,1,1,0,0,1,1.095-.159,0.235,0.235,0,0,1,.1-0.14c-0.055-.046.017-0.124,0.08-0.12a1.529,1.529,0,0,1,0-.433c-0.259-.2-0.114-0.72-0.355-0.909C300.61,66.24,300.432,66.194,300.365,66.112Zm-14,6.125c-0.111-.236.27-0.264,0.141-0.515a0.289,0.289,0,0,0,.139-0.414c-1.011.132-1.961,0.295-2.548-.2a0.478,0.478,0,0,0-.118-0.16c0.12-.088-0.1-0.091-0.079-0.188-0.141.011-.222,0.03-0.242-0.086-0.544-.3-1.706-0.2-1.708.722,0.259,0.2-.191.547,0.258,0.751a1.057,1.057,0,0,1,.12.487,0.66,0.66,0,0,1,.3.611,0.382,0.382,0,0,1,.175.4,2.508,2.508,0,0,0,.9.427,0.2,0.2,0,0,1,.2.049C285.12,74.078,285.809,72.913,286.362,72.237Zm73.7-1.385c0-.1-0.178-0.08-0.121.029C359.984,70.872,360.074,70.906,360.066,70.852Zm-90.911,1.364c0.06,0,.094-0.11.02-0.089C269.175,72.175,269.155,72.175,269.155,72.216Zm-43.367-3.045c0.937-1.043,1.554-1.957,2.327-2.869a1.477,1.477,0,0,1-.009-0.219,0.332,0.332,0,0,0,.18-0.128,4.571,4.571,0,0,0,.666-1.413,1.963,1.963,0,0,0,.181-0.188,0.133,0.133,0,0,0-.013-0.112,0.558,0.558,0,0,0,.088-0.482,2.96,2.96,0,0,0-2.266-.721,0.161,0.161,0,0,1-.029-0.08,6.006,6.006,0,0,1-1.344-.178,1.332,1.332,0,0,0-.319.032,3.83,3.83,0,0,0-1.711-.25,0.135,0.135,0,0,0-.026-0.1,7.512,7.512,0,0,0-2.011-.2c0.009-.051-0.021-0.051-0.008-0.091-0.491.025-1.587,0.336-1.99-.1-0.934-.533.5-1.188,0.476-1.921,0.224-.167.344-0.584,0.577-0.739a0.326,0.326,0,0,1-.018-0.129,0.427,0.427,0,0,0,.1-0.022c0.472-1.7-1.773-4.448-.227-5.064a4.689,4.689,0,0,0,2.754-1.917,0.516,0.516,0,0,1,.232-0.319,0.819,0.819,0,0,1-.015-0.195,2.912,2.912,0,0,1,.408-0.457,0.227,0.227,0,0,1-.03-0.079,5.048,5.048,0,0,0,.656-1.009,0.247,0.247,0,0,1-.006-0.1c0.215-.092.1-0.511,0.325-0.574,0.112-.9-0.619-0.659-1.272-0.848a1.286,1.286,0,0,0-1.65.079,25.153,25.153,0,0,1-3.072,1.642c-0.525.455-1.162,0.654-1.783,1.186-0.183-.06-0.245.232-0.5,0.219a15.34,15.34,0,0,0-1.7,1.046A19.528,19.528,0,0,1,211.8,54.1c-1.366.83-2.887,0-3.62,1.9a19.566,19.566,0,0,1-1.99,3.085,3.708,3.708,0,0,1-.634.86,0.269,0.269,0,0,1,.041.089,2.159,2.159,0,0,0-.269.307,0.172,0.172,0,0,1,.019.111c-0.557.8-1.528,1.6-2.038,2.4a0.907,0.907,0,0,0-.566.642,15.314,15.314,0,0,1-2.778,2.653,10.4,10.4,0,0,1-1.235,1.354c-0.032.221-.162-0.162-0.316,0.091-0.016.162,0.149,0.179-.061,0.316-0.88.421-2.554,0.537-2.387-.891a2.015,2.015,0,0,1,.261-1.442c-0.041-.032,0-0.131-0.041-0.159a6.916,6.916,0,0,1,.974-1.781c-0.123-.58.682-1.186,1.107-1.731a3.567,3.567,0,0,0,.287-0.892,4.62,4.62,0,0,0-.059-1.729,5.694,5.694,0,0,0-2.189-3.364c-1.528-2.208-1.919,1.809-1.582,2.859-0.04.009-.011,0.07,0,0.07a1.609,1.609,0,0,0-.1.88,7.253,7.253,0,0,1-.565,3.431c0.04,0,.006.059,0.018,0.1-0.337.279-.174,0.869-0.488,1.048a0.888,0.888,0,0,1-.059.357,0.093,0.093,0,0,0-.069.151,1.048,1.048,0,0,0-.25.64c-0.158.055-.155,0.325-0.329,0.417a0.546,0.546,0,0,1-.16.474,4.636,4.636,0,0,1-1.172,2.1c-0.029.178,0.08,0.405-.091,0.414,0.021,0.271-.244.436-0.217,0.752-0.468.369-.12,1.039,0,1.661a5.411,5.411,0,0,1,.606,1.522,0.536,0.536,0,0,1,.161.476,2.348,2.348,0,0,1,.478,1.11,1.5,1.5,0,0,1,.395.7c0.516,0.4.585,1.115,0.994,1.418,0.816,0.84,1.923-1.264,2.567-1.92a8.683,8.683,0,0,0,.846-1.326,2.746,2.746,0,0,0,.63-0.793c0.511-.544,1.015-1.219,1.606-1.85a8.155,8.155,0,0,1,1.5-2.261,0.3,0.3,0,0,1,.159-0.308c1.275-1.792,2.818-3.864,4.255-5.588a0.331,0.331,0,0,1-.017-0.18,1.1,1.1,0,0,0,.178-0.228c-0.041,0-.011-0.067-0.021-0.1a0.217,0.217,0,0,0,.149-0.286c0.181-.061.1-0.257,0.269-0.3-0.039-.042,0-0.138-0.039-0.179a3.084,3.084,0,0,0,.477-0.939,9.35,9.35,0,0,0,.954-1.81c0.165-.224.574-0.634,0.755-0.89a0.289,0.289,0,0,0,.1.011c0.959-.429,1.768.67,2.826,0.611,0.019,0.079.055,0.13,0.159,0.071,1.3,0.337,2.756.831,2.077,2.591a0.446,0.446,0,0,1-.089.019,0.611,0.611,0,0,0,.018.275c-0.087.032-.133,0.08-0.078,0.16a7.812,7.812,0,0,1-.679.76,0.39,0.39,0,0,1-.214.466c-0.653,1.471,1.208.784,2.206,0.919a0.563,0.563,0,0,1,.467-0.15,2.258,2.258,0,0,1,1.6-.156c3.815,1.026-1.966,1.493-3.538,1.464-1.77.717-4.233,0.569-5.792,1.592-1,.2-2.1.2-2.508,1.019,0.012,0.109.063,0.23-.08,0.239,0.1,0.2-.147.237-0.058,0.434a1.843,1.843,0,0,0-.175.14c-0.075.827-.358,1.487,0.337,2.2a1.607,1.607,0,0,0,.875.949c1.641,1.731,2.345.786,4.155,0.019,0.582-.455,1.36-0.461,1.93-0.949a12.519,12.519,0,0,1,2.408-.606c1.029-.627,2.815-0.293,4.157-0.62,1.731,0.166,4-.326,5.612.159A10.269,10.269,0,0,0,225.788,69.171ZM146.02,93.02l4.379-5.23,0.023-.031V86.89h-5.536v1.02h4.069l-4.281,5.129-0.025.027V94.04h6.058V92.876l-0.73.144H146.02ZM156.8,89.959H153v-3.04h-1.024V94.04H153V90.989H156.8V94.04h1.026V86.919H156.8v3.04ZM160.119,93V90.914h3.949V89.8l-0.645.093h-3.3V87.939h4.111V86.85l-0.637.069h-4.5v7.1h5.356V92.9l-0.78.1h-3.55Zm9.106-1.182a1.2,1.2,0,0,1-.158.6,1.134,1.134,0,0,1-.426.428,1.161,1.161,0,0,1-.593.156h-0.133a1.166,1.166,0,0,1-1.021-.581,1.211,1.211,0,0,1-.157-0.6v-0.1h-1.026v0.1a2.161,2.161,0,0,0,.294,1.1,2.214,2.214,0,0,0,.8.8,2.155,2.155,0,0,0,1.107.3h0.133a2.161,2.161,0,0,0,1.107-.3,2.242,2.242,0,0,0,.807-0.8,2.191,2.191,0,0,0,.289-1.1V86.9h-1.026v4.92Zm2.289,2.2h1.034V86.9h-1.034v7.121Zm6.072-7.063H176.6l-2.779,7-0.059.142h1.109l0.513-1.283h3.5L179.4,94.1h1.113l-2.9-7.074Zm-1.8,4.824,1.319-3.325,1.353,3.325h-2.672Zm10.766,0.7-3.74-5.527-0.029-.043h-1.063v7.079h1.024V88.7l3.627,5.363,0.031,0.046h1.176v-7.13h-1.026v5.507Zm5.365-1.428h2.2v1.331a0.812,0.812,0,0,1-.312.252,3.05,3.05,0,0,1-1.635.4,2.176,2.176,0,0,1-1.734-.748A2.394,2.394,0,0,1,190,91.53a2.546,2.546,0,0,1-.161-0.89,3.056,3.056,0,0,1,.146-1.012,3.356,3.356,0,0,1,.459-0.871,2.065,2.065,0,0,1,.714-0.613,2.361,2.361,0,0,1,1.036-.225,2.14,2.14,0,0,1,1.382.474,2.728,2.728,0,0,1,.6.8l0.052,0.113,0.88-.511-0.078-.146c-0.13-.22-0.246-0.4-0.353-0.544a2.547,2.547,0,0,0-.444-0.462,3.047,3.047,0,0,0-2.044-.724,3.491,3.491,0,0,0-1.491.332,3.19,3.19,0,0,0-1.071.881,3.677,3.677,0,0,0-.585,1.145,4.511,4.511,0,0,0-.2,1.363,3.55,3.55,0,0,0,.2,1.2,2.908,2.908,0,0,0,.619,1.1,3.334,3.334,0,0,0,1.048.8h0a3.565,3.565,0,0,0,1.457.3,4.381,4.381,0,0,0,1.356-.182,2.889,2.889,0,0,0,.9-0.409,1.922,1.922,0,0,0,.663-0.706l0.039-.085,0.008-2.609H191.92v1Zm12.944,0.086a1.862,1.862,0,0,1-.258.959,1.946,1.946,0,0,1-3.354.01,1.894,1.894,0,0,1-.263-0.969V86.9h-1.024v4.24a2.949,2.949,0,0,0,.221,1.138,2.823,2.823,0,0,0,.644.958,3.082,3.082,0,0,0,.963.634l0,0a2.958,2.958,0,0,0,1.132.224,3,3,0,0,0,1.137-.224,2.959,2.959,0,0,0,.959-0.638,2.893,2.893,0,0,0,.646-0.961,2.954,2.954,0,0,0,.221-1.134V86.9h-1.026v4.24Zm7.123,1.342-3.74-5.527-0.031-.043h-1.063v7.079h1.025V88.7l3.626,5.363,0.032,0.046h1.175v-7.13h-1.024v5.507Zm2.288,1.539h1.034V86.9h-1.034v7.121Zm5.66-1.431-2.305-5.651h-1.108l2.86,7.045,0.026,0.066h1.054l2.827-6.968,0.059-.143h-1.109ZM225.585,93V90.914h3.95V89.8l-0.646.093h-3.3V87.939H229.7V86.85l-0.635.069h-4.5v7.1h5.357V92.9l-0.778.1h-3.552Zm10.141-2.322a1.922,1.922,0,0,0,.674-0.714,2.1,2.1,0,0,0,.229-0.988,1.877,1.877,0,0,0-.767-1.625,3.27,3.27,0,0,0-1.9-.491h-2.78v7.206h1.026V91.111H233.7l2.462,3.243,0.823-.605-2.082-2.74A2.833,2.833,0,0,0,235.726,90.68Zm-3.521-.587V87.874h1.754a2.175,2.175,0,0,1,1.289.31,0.9,0.9,0,0,1,.355.795,0.92,0.92,0,0,1-.426.838,2.243,2.243,0,0,1-1.218.276h-1.754Zm12.828,3.928h1.034V86.9h-1.034v7.121Zm2.3-7.084v1.029h2.535v6.1H250.9v-6.1h2.524V86.793l-0.73.144h-5.365Zm10.8,2.886L255.9,86.876l-0.031-.04h-1.289l3.05,3.99v3.233h1.026v-3.24l2.982-3.983h-1.277Zm13.905-1.859a2.933,2.933,0,0,0-1.053-.772,3.078,3.078,0,0,0-2.611,0,3.344,3.344,0,0,0-1.061.77,3.708,3.708,0,0,0-.7,1.166,3.862,3.862,0,0,0-.243,1.35,3.814,3.814,0,0,0,.248,1.344,3.774,3.774,0,0,0,.7,1.162,2.98,2.98,0,0,0,1.064.782,3.24,3.24,0,0,0,1.3.282,3.116,3.116,0,0,0,1.307-.284,3.491,3.491,0,0,0,1.048-.778,3.363,3.363,0,0,0,.712-1.139,3.894,3.894,0,0,0,.238-1.368,3.7,3.7,0,0,0-.245-1.339A4.017,4.017,0,0,0,272.033,87.964Zm-0.351,3.808a2.506,2.506,0,0,1-.849.944,2.043,2.043,0,0,1-1.158.351,2.079,2.079,0,0,1-1.149-.342,2.5,2.5,0,0,1-.847-0.945,2.7,2.7,0,0,1-.321-1.3,2.783,2.783,0,0,1,.316-1.3,2.523,2.523,0,0,1,.852-0.952,2.108,2.108,0,0,1,2.3,0,2.54,2.54,0,0,1,.853.941,2.813,2.813,0,0,1,.311,1.314A2.757,2.757,0,0,1,271.682,91.772Zm2.562-4.853v7.12h1.026V90.981h3.56V89.87l-0.684.089H275.27v-2.01h3.863V86.807l-0.672.112h-4.217ZM243.373,91a4.4,4.4,0,0,0-2.152-1.032,3.035,3.035,0,0,1-1.548-.707,0.612,0.612,0,0,1-.1-0.177,1.037,1.037,0,0,1-.02-0.236,0.34,0.34,0,0,0,.008-0.092,0.563,0.563,0,0,1,.057-0.2,0.772,0.772,0,0,1,.174-0.249,1.554,1.554,0,0,1,1.186-.4,1.757,1.757,0,0,1,1.283.414,1.049,1.049,0,0,1,.172.227,2.669,2.669,0,0,1,.156.352l0.115,0.314,0.959-.314-0.168-.41a5.094,5.094,0,0,0-.232-0.49,1.6,1.6,0,0,0-.284-0.375,2.75,2.75,0,0,0-2-.717,2.586,2.586,0,0,0-1.941.734,2.085,2.085,0,0,0-.351.562,1.408,1.408,0,0,0-.118.532l-0.011.064a1.545,1.545,0,0,0,.346,1.083,3.881,3.881,0,0,0,2.088,1.062,3.228,3.228,0,0,1,1.638.747,0.5,0.5,0,0,1,.115.172,0.566,0.566,0,0,1,.018.218v0.038a0.622,0.622,0,0,1-.081.282,1.011,1.011,0,0,1-.251.3,2.06,2.06,0,0,1-1.339.4,2,2,0,0,1-1.251-.36,2.1,2.1,0,0,1-.671-1.141l-0.026-.1-0.961.241,0.026,0.1a3.043,3.043,0,0,0,.827,1.5,2.794,2.794,0,0,0,2.056.756,3.453,3.453,0,0,0,1.133-.174,2.834,2.834,0,0,0,.843-0.463,1.975,1.975,0,0,0,.515-0.629,1.536,1.536,0,0,0,.187-0.717v-0.03a1.93,1.93,0,0,0-.075-0.563A1.485,1.485,0,0,0,243.373,91Zm40.585-4.088v7.12h1.026V90.979h3.561V89.868l-0.684.089h-2.877v-2.01h3.864V86.8l-0.673.112h-4.217Zm6.153,7.1h1.034V86.9h-1.034v7.12Zm7.132-1.539L293.5,86.954l-0.031-.044H292.41v7.079h1.024V88.694l3.627,5.363,0.031,0.046h1.176v-7.13h-1.025V92.48Zm6.063-5.524h-0.988l-2.78,7-0.056.141h1.108L301.1,92.81h3.5l0.522,1.282h1.113l-2.9-7.074Zm-1.8,4.825,1.319-3.327,1.354,3.327h-2.673Zm10.768,0.7-3.741-5.526-0.03-.044h-1.063v7.079h1.025V88.694l3.627,5.363,0.031,0.046H313.3v-7.13h-1.024V92.48Zm7.5-.931a1.925,1.925,0,0,1-.381.746,2.063,2.063,0,0,1-1.74.753,1.817,1.817,0,0,1-1.522-.727,2.461,2.461,0,0,1-.412-0.762,2.815,2.815,0,0,1-.146-0.9,3.332,3.332,0,0,1,.148-0.969,3.28,3.28,0,0,1,.4-0.869,2,2,0,0,1,.642-0.613,1.754,1.754,0,0,1,.887-0.221,2.094,2.094,0,0,1,1.53.6,1.857,1.857,0,0,1,.395.627l0.034,0.092,0.966-.292-0.02-.092a1.947,1.947,0,0,0-.191-0.441,3.363,3.363,0,0,0-.394-0.561,2.853,2.853,0,0,0-.98-0.7,3.3,3.3,0,0,0-1.34-.258,2.823,2.823,0,0,0-1.4.372,3.035,3.035,0,0,0-.974.91,3.964,3.964,0,0,0-.532,1.129,4.516,4.516,0,0,0-.188,1.29,3.816,3.816,0,0,0,.185,1.213,3.458,3.458,0,0,0,.586,1.088,2.768,2.768,0,0,0,.978.805,3.034,3.034,0,0,0,1.345.3,3.424,3.424,0,0,0,1.5-.308,2.977,2.977,0,0,0,1.053-.827,3.178,3.178,0,0,0,.394-0.646,2.323,2.323,0,0,0,.177-0.526l-0.978-.311ZM323.072,93V90.912h3.951V89.8l-0.647.091h-3.3V87.937h4.113V86.848l-0.637.068h-4.5v7.1H327.4V92.9l-0.778.1h-3.552Zm15.106-1.858a5.58,5.58,0,0,0,.293-0.829l0.026-.1-0.911-.264-0.029.1a6.154,6.154,0,0,1-.494,1.209q-0.681-.644-1.37-1.311a4.6,4.6,0,0,0,.961-0.7,1.411,1.411,0,0,0,.316-0.511,1.878,1.878,0,0,0,.08-0.578,1.533,1.533,0,0,0-.525-1.2,2.236,2.236,0,0,0-2.148-.334,1.856,1.856,0,0,0-.611.4,1.671,1.671,0,0,0-.486,1.159,1.6,1.6,0,0,0,.076.5,1.982,1.982,0,0,0,.24.472,7.245,7.245,0,0,0,.511.555,4.072,4.072,0,0,0-1.285,1.016,2.036,2.036,0,0,0-.4,1.247,1.7,1.7,0,0,0,.452,1.184,2,2,0,0,0,.754.518,3.119,3.119,0,0,0,1.129.194,3.023,3.023,0,0,0,1.611-.441,3.737,3.737,0,0,0,.846-0.72l1.175,1.11,0.655-.7-1.267-1.193A7.778,7.778,0,0,0,338.178,91.142ZM334.447,87.7a0.9,0.9,0,0,1,.668-0.251,1.179,1.179,0,0,1,.784.229,0.6,0.6,0,0,1,.2.487,0.986,0.986,0,0,1-.03.266,0.468,0.468,0,0,1-.121.182l0,0a3.7,3.7,0,0,1-.959.642,3.554,3.554,0,0,1-.712-0.8,0.665,0.665,0,0,1-.048-0.261A0.678,0.678,0,0,1,334.447,87.7Zm0.306,5.225a1.483,1.483,0,0,1-1.165-.391,0.828,0.828,0,0,1-.17-0.283,0.9,0.9,0,0,1-.054-0.269,1.255,1.255,0,0,1,.051-0.372,0.939,0.939,0,0,1,.168-0.31,3.764,3.764,0,0,1,1.227-.883l1.708,1.647A2.278,2.278,0,0,1,334.753,92.923ZM345.037,93V90.912h3.95V89.8l-0.645.091h-3.305V87.937h4.112V86.848l-0.637.068h-4.5v7.1h5.357V92.9l-0.78.1h-3.551Zm10.809-1.451a1.961,1.961,0,0,1-.379.746,2.068,2.068,0,0,1-1.741.753,1.818,1.818,0,0,1-1.523-.727,2.417,2.417,0,0,1-.41-0.762,2.817,2.817,0,0,1-.148-0.9,3.366,3.366,0,0,1,.148-0.969,3.223,3.223,0,0,1,.4-0.869,1.977,1.977,0,0,1,.64-0.613,1.76,1.76,0,0,1,.888-0.221,2.089,2.089,0,0,1,1.528.6,1.848,1.848,0,0,1,.4.627l0.034,0.092,0.966-.292-0.021-.092a1.857,1.857,0,0,0-.191-0.441,3.363,3.363,0,0,0-.394-0.561,2.853,2.853,0,0,0-.98-0.7,3.3,3.3,0,0,0-1.339-.258,2.817,2.817,0,0,0-1.4.372,3.041,3.041,0,0,0-.976.91,4.015,4.015,0,0,0-.53,1.129,4.482,4.482,0,0,0-.189,1.29,3.816,3.816,0,0,0,.185,1.213,3.478,3.478,0,0,0,.586,1.088,2.786,2.786,0,0,0,.978.805,3.042,3.042,0,0,0,1.346.3,3.437,3.437,0,0,0,1.5-.308,3,3,0,0,0,1.054-.827,3.08,3.08,0,0,0,.392-0.646,2.286,2.286,0,0,0,.178-0.526l-0.979-.311Zm7.939-3.587a2.962,2.962,0,0,0-1.053-.773,3.087,3.087,0,0,0-2.611,0,3.378,3.378,0,0,0-1.061.771,3.75,3.75,0,0,0-.7,1.166,3.868,3.868,0,0,0-.243,1.35,3.79,3.79,0,0,0,.248,1.344,3.731,3.731,0,0,0,.7,1.162,2.974,2.974,0,0,0,1.063.782,3.237,3.237,0,0,0,1.3.281,3.135,3.135,0,0,0,1.306-.283,3.513,3.513,0,0,0,1.051-.778,3.342,3.342,0,0,0,.709-1.14,3.9,3.9,0,0,0,.239-1.368,3.727,3.727,0,0,0-.244-1.339A4.009,4.009,0,0,0,363.785,87.962Zm-0.351,3.808a2.489,2.489,0,0,1-.848.943h0a2.04,2.04,0,0,1-1.158.352,2.08,2.08,0,0,1-1.149-.342,2.534,2.534,0,0,1-.849-0.944,2.706,2.706,0,0,1-.319-1.3,2.765,2.765,0,0,1,.318-1.3,2.513,2.513,0,0,1,.85-0.952,2.107,2.107,0,0,1,2.3,0,2.536,2.536,0,0,1,.853.944,2.81,2.81,0,0,1,.311,1.312A2.765,2.765,0,0,1,363.434,91.769Zm7.394,0.71-3.74-5.526-0.031-.044H366v7.079h1.024V88.694l3.627,5.363,0.031,0.046h1.176v-7.13h-1.026V92.48Zm7.96-4.518a2.938,2.938,0,0,0-1.051-.773,3.087,3.087,0,0,0-2.611,0,3.37,3.37,0,0,0-1.062.771,3.709,3.709,0,0,0-.7,1.166,3.818,3.818,0,0,0,0,2.694,3.726,3.726,0,0,0,.7,1.162,2.988,2.988,0,0,0,1.065.782,3.228,3.228,0,0,0,1.3.281,3.144,3.144,0,0,0,1.308-.283,3.476,3.476,0,0,0,1.047-.778,3.352,3.352,0,0,0,.713-1.14,3.9,3.9,0,0,0,.238-1.368,3.727,3.727,0,0,0-.244-1.339A3.991,3.991,0,0,0,378.788,87.962Zm-0.351,3.808a2.489,2.489,0,0,1-.848.943,2.045,2.045,0,0,1-1.159.352,2.076,2.076,0,0,1-1.147-.342,2.517,2.517,0,0,1-.849-0.944,2.707,2.707,0,0,1-.321-1.3,2.765,2.765,0,0,1,.318-1.3,2.518,2.518,0,0,1,.852-0.952,2.107,2.107,0,0,1,2.3,0,2.515,2.515,0,0,1,.851.944,2.786,2.786,0,0,1,.312,1.312A2.742,2.742,0,0,1,378.437,91.769Zm6.346,0.382-2.214-5.224H381v7.195h1.025V88.3l2.372,5.579,0.028,0.063H385.2l2.149-5.645v5.712h1.024V86.926h-1.618Zm4.857,1.868h1.034V86.9H389.64v7.12Zm7.515-2.471a1.939,1.939,0,0,1-.381.746,2.063,2.063,0,0,1-1.739.753,1.818,1.818,0,0,1-1.523-.727,2.417,2.417,0,0,1-.41-0.762,2.789,2.789,0,0,1-.148-0.9,3.44,3.44,0,0,1,.551-1.838,2,2,0,0,1,.642-0.613,1.755,1.755,0,0,1,.888-0.221,2.089,2.089,0,0,1,1.528.6,1.86,1.86,0,0,1,.4.627l0.034,0.092,0.966-.292-0.02-.092a1.916,1.916,0,0,0-.192-0.441,3.3,3.3,0,0,0-.393-0.561,2.853,2.853,0,0,0-.98-0.7,3.3,3.3,0,0,0-1.339-.258,2.815,2.815,0,0,0-1.4.372,3.041,3.041,0,0,0-.976.91,3.989,3.989,0,0,0-.531,1.129,4.516,4.516,0,0,0-.188,1.29,3.816,3.816,0,0,0,.185,1.213,3.5,3.5,0,0,0,.586,1.088,2.774,2.774,0,0,0,.977.805,3.037,3.037,0,0,0,1.347.3,3.429,3.429,0,0,0,1.5-.308,2.986,2.986,0,0,0,1.053-.827,3.178,3.178,0,0,0,.394-0.646,2.169,2.169,0,0,0,.176-0.526l-0.977-.311ZM404.59,91a4.384,4.384,0,0,0-2.152-1.031,3.031,3.031,0,0,1-1.548-.708,0.617,0.617,0,0,1-.1-0.176,1.048,1.048,0,0,1-.02-0.236,0.346,0.346,0,0,0,.009-0.093,0.55,0.55,0,0,1,.056-0.2,0.755,0.755,0,0,1,.174-0.248,1.55,1.55,0,0,1,1.184-.4,1.759,1.759,0,0,1,1.285.415,1.067,1.067,0,0,1,.172.226,2.693,2.693,0,0,1,.156.354l0.115,0.313,0.959-.313-0.168-.411A4.981,4.981,0,0,0,404.48,88a1.586,1.586,0,0,0-.284-0.374,2.752,2.752,0,0,0-2-.718,2.589,2.589,0,0,0-1.94.735,2.1,2.1,0,0,0-.35.561,1.4,1.4,0,0,0-.118.532l-0.011.064a1.546,1.546,0,0,0,.346,1.083,3.878,3.878,0,0,0,2.088,1.062,3.224,3.224,0,0,1,1.638.746,0.5,0.5,0,0,1,.115.174,0.556,0.556,0,0,1,.018.217V92.12a0.629,0.629,0,0,1-.081.283,1.011,1.011,0,0,1-.251.3,2.054,2.054,0,0,1-1.339.4,2,2,0,0,1-1.251-.36,2.108,2.108,0,0,1-.671-1.141l-0.026-.1-0.961.242,0.026,0.1a3.042,3.042,0,0,0,.827,1.5,2.794,2.794,0,0,0,2.056.756,3.428,3.428,0,0,0,1.133-.173,2.82,2.82,0,0,0,.843-0.462,1.985,1.985,0,0,0,.515-0.629,1.541,1.541,0,0,0,.187-0.717V92.091a1.934,1.934,0,0,0-.075-0.564A1.485,1.485,0,0,0,404.59,91ZM104.064,36.51a39.79,39.79,0,0,0-29.956-10.4,42.655,42.655,0,0,0-8.865,1.477,40.727,40.727,0,0,0-29.119,41.6C37.031,81.5,42.348,90.378,49.4,96.607a40.662,40.662,0,0,0,30.3,10.3,40.031,40.031,0,0,0,27.327-13.237,39.34,39.34,0,0,0,10.339-29.939A40.649,40.649,0,0,0,104.064,36.51ZM105.5,92.82A37.77,37.77,0,0,1,79.022,105.3,39.122,39.122,0,0,1,50.154,95.1,38.936,38.936,0,0,1,66.08,29.065a40.263,40.263,0,0,1,8.586-1.342,38.469,38.469,0,0,1,28.453,10.2A37.635,37.635,0,0,1,115.751,64.5,38.2,38.2,0,0,1,105.5,92.82Zm-0.832-26.771a27.674,27.674,0,0,0-2.486-11.021,27.3,27.3,0,0,0-25.65-16.28,27.664,27.664,0,0,0-27.73,28.329,26.724,26.724,0,0,0,8.382,19.369,28.287,28.287,0,0,0,20.071,7.828,26.374,26.374,0,0,0,19.549-8.453A28.116,28.116,0,0,0,104.671,66.049Zm-25.728,27.1a26.871,26.871,0,0,1-19.867-6.486,26.509,26.509,0,0,1-2.523-37.8,26.864,26.864,0,0,1,47.011,15.7A26.634,26.634,0,0,1,78.944,93.151ZM48.115,80.612l0.014,0,0.48-.2,0.039-.017-1.254-2.9-0.018-.039-0.564.241-0.049.022,0.227,0.312,0.852,1.97-3.93-.9-0.421.183-0.039.017L44.6,81.942l0.018,0.041,0.494-.213,0.041-.018-0.872-2.012Zm-0.856-3.491-0.148-.5-1.792.527-0.585-1.972,1.752-.514,0.041-.012-0.136-.459-0.011-.043-4.105,1.205-0.041.011,0.138,0.46,0.012,0.04,1.787-.524,0.585,1.973-1.747.513-0.04.012,0.148,0.5,4.1-1.2Zm-0.982-3.377L45.784,71l-0.008-.045-0.63.113,0.13,0.385,0.334,1.878-1.3.23-0.363-2.032-0.008-.039-0.577.1-0.05.007,0.113,0.316,0.313,1.748-1.22.215-0.381-2.114-0.007-.042-0.612.109,0.1,0.312,0.415,2.308L42.035,74.5l4.2-.746Zm-1.625-4.869a0.689,0.689,0,0,1,.288.211,0.565,0.565,0,0,1,.122.314l0.006,0.07A0.577,0.577,0,0,1,45,69.8a0.694,0.694,0,0,1-.25.255,0.832,0.832,0,0,1-.369.115l-0.044,0,0.042,0.519,0.042,0a1.454,1.454,0,0,0,.647-0.207,1.225,1.225,0,0,0,.45-0.459,1.032,1.032,0,0,0,.133-0.6l0-.07a1.039,1.039,0,0,0-.227-0.569A1.265,1.265,0,0,0,44.9,68.4a1.509,1.509,0,0,0-.669-0.1l-2.941.232-0.044,0,0.042,0.519,2.984-.236A0.788,0.788,0,0,1,44.652,68.875Zm0.905-1.139-0.013-.525-4.275.092H41.227l0.011,0.526,4.277-.091Zm-0.011-.982,0.026-.529,0-.03L44.8,65.883l0.092-1.878,0.772-.23,0.029-.01,0.023-.49V63.206l-4.371,1.323-0.028.009-0.023.481,0,0.029,4.2,1.682Zm-1.322-1.1-2.066-.828,2.138-.639Zm1.483-2.819,0.076-.472,0.007-.041L42.553,61.8l3.6-1.405,0.023-.008,0.1-.6-4.228-.676L42,59.1l-0.078.472-0.006.04,3.363,0.54-3.7,1.451-0.023.008-0.079.5-0.008.041,4.2,0.67Zm-2.738-4.788a2.324,2.324,0,0,0,.585.485,3.041,3.041,0,0,0,.767.325,2.44,2.44,0,0,0,.661.095c0.032,0,.062,0,0.1,0a1.886,1.886,0,0,0,1.326-.537v0a1.709,1.709,0,0,0,.387-0.693,2.082,2.082,0,0,0,.089-0.726,1.438,1.438,0,0,0-.112-0.523,1.079,1.079,0,0,0-.313-0.448l-0.045-.034-1.467-.413L44.9,55.56l-0.449,1.588-0.013.039,0.551,0.152,0.319-1.127,0.814,0.224a0.475,0.475,0,0,1,.112.215,1.476,1.476,0,0,1,0,.91,1.114,1.114,0,0,1-.7.773,1.561,1.561,0,0,1-.522.1,1.771,1.771,0,0,1-.556-0.064,2.183,2.183,0,0,1-.583-0.246,2.241,2.241,0,0,1-.454-0.384,1.171,1.171,0,0,1-.259-0.473,1.149,1.149,0,0,1,.016-0.576,1.048,1.048,0,0,1,.486-0.635,1.719,1.719,0,0,1,.566-0.179l0.054-.023-0.149-.464-0.052-.149-0.026.132c-0.148.032-.274,0.062-0.376,0.1a1.328,1.328,0,0,0-.332.148,1.5,1.5,0,0,0-.718.923,1.643,1.643,0,0,0-.021.818A1.766,1.766,0,0,0,42.969,58.046Zm4.044-4.254c0.065,0.005.128,0.01,0.191,0.01a1.689,1.689,0,0,0,.477-0.069,1.644,1.644,0,0,0,.57-0.292,1.417,1.417,0,0,0,.386-0.481,1.39,1.39,0,0,0,.139-0.6,1.556,1.556,0,0,0-.126-0.624,1.812,1.812,0,0,0-.376-0.557,1.965,1.965,0,0,0-.567-0.4l-2.284-1.094-0.037-.019-0.227.468,2.321,1.111a1.3,1.3,0,0,1,.48.384,1.152,1.152,0,0,1,.23.535,0.936,0.936,0,0,1-.45.942,1.208,1.208,0,0,1-.564.157H47.145a1.313,1.313,0,0,1-.575-0.133l-2.283-1.094-0.039-.017-0.228.468L46.341,53.6A2.045,2.045,0,0,0,47.013,53.792Zm2.433-2.6,0.258-.4,0.021-.035-2.766-1.744,3.863,0.118h0.023l0.3-.479,0.021-.035-3.615-2.281-0.036-.022-0.28.438,2.877,1.812-3.979-.121H46.113l-0.295.463,3.593,2.266Zm1.984-2.961,0.314-.423-3.437-2.533-0.034-.024-0.313.423L51.4,48.208Zm1.555-1.93,0.36-.41-2.222-3.913-0.031-.051-0.37.422,1.817,3.206-3.42-1.331-0.027-.011-0.37.423,4.233,1.654Zm1.592-1.791,2.065-1.884,0.032-.027-0.433-.471-0.259.316-1.413,1.288-0.893-.967,1.53-1.4,0.032-.028-0.431-.467-0.209.266-1.316,1.2-0.838-.91,1.595-1.453,0.031-.028-0.421-.455-0.214.249L51.7,41.325l-0.032.028,2.885,3.127ZM57,42.359l0.421-.308L56.347,40.6l0.661-.482L59.2,40.913l0.046,0.017,0.118-.49,0.008-.036-1.9-.69a1.419,1.419,0,0,0,.251-0.44,1.065,1.065,0,0,0,.031-0.553,1.4,1.4,0,0,0-.253-0.547,1.2,1.2,0,0,0-.9-0.545H56.549a1.635,1.635,0,0,0-.95.358l-1.156.848-0.034.024,2.564,3.468Zm-1.828-3.347,0.77-.563a1.1,1.1,0,0,1,.633-0.257,0.356,0.356,0,0,1,.041,0,0.614,0.614,0,0,1,.46.288,0.606,0.606,0,0,1,.125.567,1.089,1.089,0,0,1-.428.523L56,40.135Zm3.179-1.56,0.013,0.032a1,1,0,0,0,.48.467,2.008,2.008,0,0,0,1.287.005,1.662,1.662,0,0,1,1-.045,0.394,0.394,0,0,1,.117.067,0.433,0.433,0,0,1,.079.118l0.013,0.019a0.454,0.454,0,0,1,.05.183,0.618,0.618,0,0,1-.024.231,1,1,0,0,1-.5.575,0.993,0.993,0,0,1-.7.144,1.342,1.342,0,0,1-.671-0.428l-0.031-.034-0.353.364,0.028,0.028a1.926,1.926,0,0,0,.833.566,1.275,1.275,0,0,0,.421.069,1.514,1.514,0,0,0,.758-0.217,1.6,1.6,0,0,0,.468-0.394,1.433,1.433,0,0,0,.248-0.462,1.147,1.147,0,0,0,.047-0.461,1.018,1.018,0,0,0-.13-0.416l-0.008-.018a1.313,1.313,0,0,0-.2-0.27,0.938,0.938,0,0,0-.3-0.187,2.3,2.3,0,0,0-1.306.028,1.543,1.543,0,0,1-.945.038,0.4,0.4,0,0,1-.108-0.071,0.75,0.75,0,0,1-.086-0.129,0.253,0.253,0,0,0-.025-0.046,0.512,0.512,0,0,1-.039-0.129,0.486,0.486,0,0,1,.006-0.185,0.776,0.776,0,0,1,.431-0.536,0.882,0.882,0,0,1,.732-0.123,0.585,0.585,0,0,1,.154.076,1.5,1.5,0,0,1,.183.146l0.1,0.085,0.05,0.02,0.324-.389-0.193-.147c-0.109-.086-0.19-0.149-0.258-0.194a1.038,1.038,0,0,0-.24-0.12,1.371,1.371,0,0,0-1.141.153,1.291,1.291,0,0,0-.673.9,1.267,1.267,0,0,0,.01.384A1.017,1.017,0,0,0,58.35,37.452Zm4.4,1.226,0.475-.226-1.862-3.833-0.018-.037-0.475.229,1.861,3.831ZM63.53,34.3l1.348,3.42,0.016,0.039,0.491-.193L64.021,34.1l1.261-.49-0.246-.626-0.321.218-2.625,1.022-0.039.016,0.214,0.545Zm4.938,2.233,0.011,0.04,0.507-.127-0.486-1.9,0.909-2.636,0.026-.073-0.6.151-0.023.006L68.1,34.06,66.483,32.6l-0.018-.014-0.632.16,2.162,1.93Zm4.486-1.463a1.613,1.613,0,0,0,.6.428,1.6,1.6,0,0,0,.6.125l0.1,0a1.531,1.531,0,0,0,.682-0.222,1.885,1.885,0,0,0,.522-0.512,2.065,2.065,0,0,0,.324-0.71,2.659,2.659,0,0,0,.067-0.832,2.557,2.557,0,0,0-.188-0.8,2.476,2.476,0,0,0-.426-0.679,1.635,1.635,0,0,0-1.3-.548,1.471,1.471,0,0,0-.676.228,1.771,1.771,0,0,0-.528.505,2.245,2.245,0,0,0-.321.728,2.552,2.552,0,0,0,.122,1.619A2.353,2.353,0,0,0,72.954,35.068Zm0-2.323a1.494,1.494,0,0,1,.42-0.62,1.032,1.032,0,0,1,.6-0.254c0.024,0,.05,0,0.075,0a1.036,1.036,0,0,1,.562.167,1.485,1.485,0,0,1,.506.546,1.961,1.961,0,0,1,.228.8,1.831,1.831,0,0,1-.11.809,1.48,1.48,0,0,1-.416.614,1,1,0,0,1-.608.261,1.03,1.03,0,0,1-.635-0.164,1.532,1.532,0,0,1-.5-0.546,1.868,1.868,0,0,1-.233-0.79A1.928,1.928,0,0,1,72.957,32.745Zm4.061,0.9L78.927,33.7l0.016-.631-0.355.042-1.556-.04L77.068,31.8,79.1,31.857l0.042,0,0.018-.652-0.35.058-2.2-.06H76.56l-0.115,4.253V35.5l0.522,0.015ZM81.9,34.008l1.839,0.306,0.042,0.006,0.105-.622-0.356-.006L82,33.435l0.212-1.248,2.044,0.341,0.1-.593,0.008-.05-0.355.01-2.172-.365-0.044-.008-0.708,4.195-0.008.043,0.517,0.086ZM84.1,36.3l0.514,0.118,0.982-4.139,0.01-.041L85.09,32.12l-0.982,4.142Zm0.982,0.179,0.5,0.155,0.988-3.107,0.872,3.744,0,0.025,0.585,0.182L89.32,33.42l0.013-.04-0.5-.157-1.027,3.228-0.9-3.855,0-.024-0.527-.165-1.284,4.034Zm3.244,1.093,0.514,0.232,0.577-.6,1.72,0.783-0.071.8,0,0.031,0.515,0.233,0.386-4.531,0-.029L91.5,34.282l-3.132,3.25Zm3.06-2.412-0.194,2.211-1.345-.611Zm0.527,4.015,0.407,0.251,0.037,0.022,1.728-2.769L94,40.524v0.023l0.481,0.3,0.037,0.023,2.256-3.62,0.023-.036-0.407-.251-0.037-.022L94.56,39.815l0.081-3.956V35.835l-0.431-.267-0.035-.022L91.933,39.14Zm4.2,0.257a2.651,2.651,0,0,0-.382.632,2.179,2.179,0,0,0-.168.706,1.5,1.5,0,0,0,.1.7,1.4,1.4,0,0,0,.445.587,1.642,1.642,0,0,0,.741.353,1.861,1.861,0,0,0,.285.026,1.565,1.565,0,0,0,.465-0.072A1.83,1.83,0,0,0,98,42.2a1.492,1.492,0,0,0,.27-0.188l0.028-.027-0.32-.412-0.032.029a1.324,1.324,0,0,1-.454.232,1.069,1.069,0,0,1-1.028-.221,0.958,0.958,0,0,1-.363-0.864,1.539,1.539,0,0,1,.121-0.505,1.9,1.9,0,0,1,.288-0.484,2.238,2.238,0,0,1,.438-0.419,2.168,2.168,0,0,1,.507-0.282,1.2,1.2,0,0,1,.509-0.079,0.867,0.867,0,0,1,.462.193,1.048,1.048,0,0,1,.415.8,1.208,1.208,0,0,1-.075.438l-0.016.04,0.457,0.162,0.034,0.009,0.018-.031a1.135,1.135,0,0,0,.086-0.266,2.059,2.059,0,0,0,.05-0.393,1.513,1.513,0,0,0-.142-0.655,1.553,1.553,0,0,0-.459-0.566,1.379,1.379,0,0,0-.723-0.288,1.814,1.814,0,0,0-.749.109,2.609,2.609,0,0,0-.65.355A3.159,3.159,0,0,0,96.109,39.435Zm1.625,3.939,1.972,1.978,0.029,0.031,0.455-.45-0.327-.243-1.349-1.355,0.938-.923,1.461,1.465,0.03,0.03,0.45-.444-0.271-.2L99.867,42l0.88-.867,1.523,1.528,0.031,0.031,0.407-.405,0.034-.032-0.259-.2-1.658-1.663-0.031-.031-3.031,2.985Zm3.933,3.494a1.034,1.034,0,0,0-.027.5,1.456,1.456,0,0,0,.248.56,1.479,1.479,0,0,0,.715.545,2.115,2.115,0,0,0,.63.115l-0.2.9,0.483,0.036,0.035,0,0.208-.967a4.753,4.753,0,0,0,.536-0.1,3.387,3.387,0,0,0,.5-0.161l0.037-.015-0.139-.464-0.044.02a4.209,4.209,0,0,1-.781.212c0.075-.35.156-0.72,0.243-1.1a2.58,2.58,0,0,0,.668.183,0.917,0.917,0,0,0,.345-0.04,1.368,1.368,0,0,0,.306-0.164,0.952,0.952,0,0,0,.232-1.407,0.929,0.929,0,0,0-.3-0.272,0.992,0.992,0,0,0-.382-0.123,0.947,0.947,0,0,0-.375.031,1.149,1.149,0,0,0-.34.157,1.113,1.113,0,0,0-.222.2,1.261,1.261,0,0,0-.157.264,3.952,3.952,0,0,0-.128.443,2.489,2.489,0,0,0-.493-0.121l-0.005,0a2.238,2.238,0,0,0-.386-0.094h-0.038a1.39,1.39,0,0,0-.738.255A1.1,1.1,0,0,0,101.667,46.867Zm2.762-1.036a0.4,0.4,0,0,1,.123-0.118,0.476,0.476,0,0,1,.671.12,0.57,0.57,0,0,1,.128.43,0.426,0.426,0,0,1-.193.275,0.75,0.75,0,0,1-.151.085,0.324,0.324,0,0,1-.136.012h0a2.083,2.083,0,0,1-.629-0.2A2.258,2.258,0,0,1,104.429,45.831Zm-2.262,1.132a0.549,0.549,0,0,1,.095-0.181,0.626,0.626,0,0,1,.125-0.122,1.062,1.062,0,0,1,.209-0.115,0.7,0.7,0,0,1,.216-0.035h0.011a2.127,2.127,0,0,1,.822.23l-0.143.616-0.164.737a1.19,1.19,0,0,1-1.006-.475A0.737,0.737,0,0,1,102.167,46.963ZM104.2,51.7l1.219,2.509,0.018,0.038L105.971,54l0.044-.022-0.229-.336-0.833-1.717,1.188-.57,0.9,1.859,0.019,0.038,0.574-.277-0.193-.273-0.776-1.6,1.115-.536,0.941,1.936,0.018,0.038,0.561-.268-0.178-.278L108.1,49.88l-0.018-.037-3.842,1.843Zm4.109,2.083a3.15,3.15,0,0,0-.773.165,2.662,2.662,0,0,0-.66.335,2.2,2.2,0,0,0-.518.512,1.49,1.49,0,0,0-.287.648,1.431,1.431,0,0,0,.063.734,1.668,1.668,0,0,0,.444.687,1.686,1.686,0,0,0,.658.359,2,2,0,0,0,.439.067h0.091a1.123,1.123,0,0,0,.238-0.02l0.039-.006-0.05-.474,0-.043-0.042,0a1.224,1.224,0,0,1-.507-0.04,1.05,1.05,0,0,1-.755-0.728,0.947,0.947,0,0,1,.15-0.923,1.564,1.564,0,0,1,.373-0.367,1.933,1.933,0,0,1,.5-0.259,2.3,2.3,0,0,1,.594-0.125,2.2,2.2,0,0,1,.581.027,1.166,1.166,0,0,1,.474.2,0.848,0.848,0,0,1,.29.405,1.038,1.038,0,0,1-.075.9,1.179,1.179,0,0,1-.3.334l-0.034.026,0.324,0.406,0.031-.02a1.128,1.128,0,0,0,.213-0.181,1.923,1.923,0,0,0,.255-0.307,1.505,1.505,0,0,0,.138-1.352,1.367,1.367,0,0,0-.462-0.622,1.668,1.668,0,0,0-.694-0.3A2.652,2.652,0,0,0,108.31,53.788Zm0.6,3.818a2.5,2.5,0,0,0-.767.3,2.343,2.343,0,0,0-.606.512,1.582,1.582,0,0,0-.34.651,1.549,1.549,0,0,0-.016.712,1.465,1.465,0,0,0,.32.639,1.9,1.9,0,0,0,.582.438,2.132,2.132,0,0,0,.759.218c0.077,0.007.157,0.01,0.236,0.01a2.721,2.721,0,0,0,.6-0.069,2.48,2.48,0,0,0,.765-0.3,2.559,2.559,0,0,0,.616-0.515,1.6,1.6,0,0,0,.334-0.645,1.51,1.51,0,0,0,.021-0.72,1.477,1.477,0,0,0-.324-0.632,1.782,1.782,0,0,0-.58-0.445,2.315,2.315,0,0,0-.772-0.21A2.522,2.522,0,0,0,108.913,57.606Zm1.616,0.8a1.014,1.014,0,0,1,.272,1.208,1.488,1.488,0,0,1-.472.576,1.892,1.892,0,0,1-.758.342,2.007,2.007,0,0,1-.822.011,1.518,1.518,0,0,1-.671-0.322h0a1.009,1.009,0,0,1-.278-1.208,1.528,1.528,0,0,1,.474-0.575,1.863,1.863,0,0,1,.752-0.345,2.034,2.034,0,0,1,.406-0.045c0.022,0,.041,0,0.062,0a1.782,1.782,0,0,1,.358.037A1.519,1.519,0,0,1,110.529,58.41Zm-2.872,3.461,0.052,0.517,3.262-.325-3.134,2.288,0.059,0.607,4.263-.424,0.043-.006-0.051-.517-3.389.34,3.225-2.361-0.055-.545-4.231.423Zm3.972,4.031a2.345,2.345,0,0,0-.7-0.388,2.666,2.666,0,0,0-.816-0.145h-0.058a2.585,2.585,0,0,0-.758.113,2.328,2.328,0,0,0-.714.356,1.591,1.591,0,0,0-.674,1.237,1.478,1.478,0,0,0,.159.7,1.888,1.888,0,0,0,.46.566,2.105,2.105,0,0,0,.684.391,2.68,2.68,0,0,0,.825.144h0.06a2.532,2.532,0,0,0,1.476-.467,1.6,1.6,0,0,0,.48-0.546,1.548,1.548,0,0,0,.193-0.692,1.459,1.459,0,0,0-.164-0.691A1.762,1.762,0,0,0,111.629,65.9Zm-0.164,1.87a1.5,1.5,0,0,1-.595.446,1.907,1.907,0,0,1-.773.154l-0.047,0a1.887,1.887,0,0,1-.8-0.185,1.5,1.5,0,0,1-.575-0.471,0.993,0.993,0,0,1-.2-0.627,1.035,1.035,0,0,1,.225-0.614,1.5,1.5,0,0,1,.6-0.445,1.9,1.9,0,0,1,.767-0.156H110.1a1.987,1.987,0,0,1,.807.188,1.564,1.564,0,0,1,.58.471,1.013,1.013,0,0,1,.2.624A1.026,1.026,0,0,1,111.465,67.771Zm-3.661,1.4-0.078.514,3.582,0.538-3.64.757-0.029.007-0.055.364-0.005.03,3.312,1.68-3.486-.524-0.042-.007-0.078.514,4.206,0.632,0.042,0.007,0.122-.8,0-.03-3.028-1.529,3.337-.689L112,70.625l0.117-.763,0.006-.042-4.276-.641Zm-0.661,4.22-0.113.467-0.01.042,4.157,1,0.042,0.008,0.114-.467,0.009-.043-4.158-1Zm3.013,2.417a2.633,2.633,0,0,0-.565-0.476A3.049,3.049,0,0,0,108.878,75a2.6,2.6,0,0,0-.73-0.131,2.207,2.207,0,0,0-.724.092,1.521,1.521,0,0,0-.624.34,1.443,1.443,0,0,0-.4.623,1.621,1.621,0,0,0-.068.815,1.6,1.6,0,0,0,.306.683,1.887,1.887,0,0,0,.307.316,1.446,1.446,0,0,0,.27.185l0.036,0.018,0.274-.443-0.039-.023a1.211,1.211,0,0,1-.378-0.339,1.031,1.031,0,0,1-.154-1.032,0.947,0.947,0,0,1,.683-0.645,1.453,1.453,0,0,1,.52-0.065,2.009,2.009,0,0,1,.557.1,2.372,2.372,0,0,1,.55.262,2.188,2.188,0,0,1,.444.371,1.176,1.176,0,0,1,.254.446,0.842,0.842,0,0,1-.018.5,1.057,1.057,0,0,1-.608.669,1.248,1.248,0,0,1-.44.084h-0.042l0.009,0.518L108.9,78.34a0.39,0.39,0,0,0,.063,0,1.862,1.862,0,0,0,.217-0.019,2.038,2.038,0,0,0,.389-0.093,1.522,1.522,0,0,0,.935-0.988,1.349,1.349,0,0,0,.016-0.774A1.745,1.745,0,0,0,110.156,75.808Zm-1.281,3.729a0.989,0.989,0,0,0-.268-0.19l-0.027-.019a1.016,1.016,0,0,0-.663-0.1,1.974,1.974,0,0,0-1.05.74,1.656,1.656,0,0,1-.786.609,0.367,0.367,0,0,1-.133.013,0.439,0.439,0,0,1-.131-0.046l-0.023-.012a0.457,0.457,0,0,1-.149-0.12,0.621,0.621,0,0,1-.115-0.2,1.014,1.014,0,0,1,.074-0.757,0.966,0.966,0,0,1,.485-0.52,1.368,1.368,0,0,1,.8-0.04L106.93,78.9l0.076-.5-0.039-.006a1.924,1.924,0,0,0-1.008.019,1.386,1.386,0,0,0-.873.8,1.574,1.574,0,0,0-.154.589,1.43,1.43,0,0,0,.07.522,1.19,1.19,0,0,0,.231.4,0.987,0.987,0,0,0,.349.265L105.6,81a1.275,1.275,0,0,0,.322.1,0.852,0.852,0,0,0,.355-0.023,2.263,2.263,0,0,0,1.049-.778,1.528,1.528,0,0,1,.747-0.576,0.507,0.507,0,0,1,.13,0,0.839,0.839,0,0,1,.145.053,0.122,0.122,0,0,0,.046.027,0.38,0.38,0,0,1,.107.083,0.489,0.489,0,0,1,.105.153,0.768,0.768,0,0,1-.039.686,0.888,0.888,0,0,1-.523.523,0.77,0.77,0,0,1-.172.028,2.287,2.287,0,0,1-.233-0.014l-0.136-.01-0.05.01-0.038.507,0.243,0.007c0.11,0.008.2,0.011,0.276,0.011h0.047a0.991,0.991,0,0,0,.265-0.042,1.349,1.349,0,0,0,.838-0.785,1.272,1.272,0,0,0,.025-1.117A1.293,1.293,0,0,0,108.875,79.537ZM68.838,83.85l0.878-.377v4.634h0.673V82.493l-1.551.672V83.85Zm6.229-.951a1.622,1.622,0,0,0-.593-0.366,1.9,1.9,0,0,0-.656-0.118,1.968,1.968,0,0,0-.864.162,1.636,1.636,0,0,0-.663.546,1.99,1.99,0,0,0-.381,1.313A1.657,1.657,0,0,0,73,86.008a1.949,1.949,0,0,0,.7.125,1.984,1.984,0,0,0,1.374-.56,3.534,3.534,0,0,1-.274,1.211,1.226,1.226,0,0,1-.456.541,1.36,1.36,0,0,1-.716.175,0.953,0.953,0,0,1-.742-0.342,0.869,0.869,0,0,1-.163-0.257s0,0,0,0l-0.7,0a1.277,1.277,0,0,0,.109.3,1.585,1.585,0,0,0,.235.355,1.6,1.6,0,0,0,1.3.591h0.126a1.98,1.98,0,0,0,1-.334,1.822,1.822,0,0,0,.619-0.763,3.167,3.167,0,0,0,.261-0.884,7.722,7.722,0,0,0,.083-1.222,3.745,3.745,0,0,0-.175-1.19A2.21,2.21,0,0,0,75.067,82.9ZM73.756,85.53A1.228,1.228,0,1,1,74.991,84.3,1.231,1.231,0,0,1,73.756,85.53Zm2.617-2.236H79.38l-2.024,4.812h0.68L80.108,83.2V82.649H76.373v0.645Zm7.518,2.983V82.525H83.156l-2.7,3.838v0.546h2.807v1.2H83.89v-1.2h0.775V86.278H83.89Zm-0.632,0H81.3L83.259,83.5v2.781Zm3.7-26.037c-2.3-2.238-6.234-3.333-10.2-3.322-3.971-.011-7.9,1.084-10.206,3.322a35.925,35.925,0,0,1,10.206-1.269A35.907,35.907,0,0,1,86.956,60.241ZM76.751,48.535A2.033,2.033,0,1,0,74.707,46.5,2.04,2.04,0,0,0,76.751,48.535ZM91.175,73.256c-1.474-3.2-1.293-12.383-1.293-12.393,0-6.612-3.734-11.363-9.622-12.921a1.069,1.069,0,0,0-1.3.746,1.055,1.055,0,0,0,.752,1.291A10.777,10.777,0,0,1,87.76,60.784l0.015,0.373c-5.3.123-6.888,1.782-7.659,3.532-0.549,1.25-.478,2.894-0.462,5.1l0.007,8.176a1.062,1.062,0,0,0,2.123,0l-0.008-8.192a11.919,11.919,0,0,1,.35-4.176c0.643-1.441,2.382-2.256,5.732-2l0,0.065c0,7.968,1.287,15.233,9,15.46a18.371,18.371,0,0,1-2.1-1.22A10.478,10.478,0,0,1,91.175,73.256ZM71.72,77.967a1.061,1.061,0,0,0,2.122,0l0.006-8.176c0.016-2.208.087-3.852-.462-5.1-0.772-1.75-2.361-3.41-7.657-3.532l0.013-.373A10.777,10.777,0,0,1,73.79,49.979a1.055,1.055,0,0,0,.752-1.291,1.067,1.067,0,0,0-1.3-.746c-5.889,1.558-9.622,6.309-9.622,12.921,0,0.01.18,9.194-1.295,12.393a10.469,10.469,0,0,1-3.583,4.654,18.277,18.277,0,0,1-2.1,1.22c7.711-.227,9-7.493,9-15.46l0-.065c3.35-.261,5.088.554,5.732,2a11.921,11.921,0,0,1,.35,4.176Zm33.81,10.684a4.33,4.33,0,0,0-.435-0.236c0.144-.408.7-0.235,0.8-0.561-0.132-.239-0.182-0.813-0.611-0.559a9.032,9.032,0,0,0-.937.595c-0.4.2,0.01,1.065-.617,0.433,0.009-.019-0.02-0.037-0.012-0.056,0.389-.3-0.122-0.64.078-0.96,0.16-.3.311-0.67,0.452-0.988-0.02-.563.817-1.08,0.621-1.617a0.154,0.154,0,0,0-.057-0.108c0-.1-0.118-0.033-0.177-0.059-0.64,0-1.244.8-1.829,1.147,0.008,0.005,0,.035-0.017.02a1.38,1.38,0,0,1-.17.125,0.222,0.222,0,0,1-.152-0.061c-0.157-.137-0.165-0.344-0.313-0.467a1.7,1.7,0,0,0-.741-0.676c-0.014.011-.048-0.021-0.047-0.034-1.432-.54.138,1.025-0.521,1.378-0.008-.012-0.02,0-0.031-0.014-0.287-.053-0.506-0.464-0.127-0.611a0.855,0.855,0,0,0-.189-0.268c-0.472.555-.25-0.011-0.776-0.01a0.241,0.241,0,0,0-.154.033c-0.021-.03-0.021.032-0.052,0.027a2.213,2.213,0,0,0,1.256,1.443c0.562-.311.413,0.153,0.643,0.4,0.1,0.151.347,0.377,0.53,0.225,0.028,0.182-.037.634-0.283,0.441a2.257,2.257,0,0,1-.24-0.162,0.46,0.46,0,0,0-.164-0.119c-0.177-.2-0.447-0.287-0.6-0.5-0.2-.076-0.587.073-0.28,0.264-0.013.016,0.043,0.027,0.03,0.046a0.115,0.115,0,0,0,.043.017A3.5,3.5,0,0,0,101.57,88.3c-0.069.279-.562,0.007-0.717-0.159a4.766,4.766,0,0,1-.974-0.512c-0.833.216,0.96,1.276,1.284,1.377,0.151,0,.4-0.181.272,0.083a6.891,6.891,0,0,0-.413.8c0.045,0.269-.553.1-0.384,0.388a1.969,1.969,0,0,0,.074.34,0.227,0.227,0,0,1,.043.117,0.618,0.618,0,0,1,.068.287,0.2,0.2,0,0,1,.034.079c0.018-.019.009,0.006,0.031,0a0.065,0.065,0,0,0-.007.032,4.6,4.6,0,0,1,.408.622,2.485,2.485,0,0,0,.185.3,0.487,0.487,0,0,0,.151.228,0.815,0.815,0,0,0,.066.123,0.112,0.112,0,0,1,.062.079,1.429,1.429,0,0,0,.75.557,0.907,0.907,0,0,0,.511-1.15c-0.379-.332-0.749-0.805-1.174-1.177a0.352,0.352,0,0,0-.017-0.036,1.6,1.6,0,0,1-.368-0.45c-0.5-.254.706-0.124,0.4-0.666a3.33,3.33,0,0,1,.624-2.07,2.512,2.512,0,0,1,.844-1.7c1.6-1.418,1.013-.146.616,0.9a1.7,1.7,0,0,1-.309.57,9.125,9.125,0,0,0-.846.865,0.908,0.908,0,0,0-.229.855,2.924,2.924,0,0,1-.037.34c0.151,0.263.428-.829,0.648-0.551-0.019.014,0.007,0.023-.011,0.035a1.14,1.14,0,0,0,.031.474c0.6,0.552-.2.911-0.072,1.55,1.148,0.865,1.563.705,2.331-.524,0.643-.8,1.225-0.4.149-1.612A0.171,0.171,0,0,1,105.53,88.651Zm-3.888-2.522a0.256,0.256,0,0,1-.111.033c-0.205-.242.064-0.235,0.12-0.066C101.7,86.094,101.666,86.157,101.642,86.129Zm-0.012-.569c-0.1.012-.277,0.06-0.329,0.058a1.913,1.913,0,0,1,.052-0.454c-0.039-.024-0.065-0.172,0-0.084C101.441,85.2,101.809,85.475,101.63,85.56Zm0.524,1A0.4,0.4,0,0,0,102,86.453c-0.29-.235-0.024-0.5.138-0.123a0.323,0.323,0,0,0,.175-0.008,0.132,0.132,0,0,0,0,.052A0.476,0.476,0,0,1,102.154,86.558Zm2.792,3.7a0.983,0.983,0,0,1-.731.46,0.572,0.572,0,0,1-.428-0.376,1.268,1.268,0,0,1,.89-1.329c0.729-.005.64,0.839,0.254,1.235A0.048,0.048,0,0,1,104.946,90.257ZM99,94.878a11.674,11.674,0,0,0-1.217.345,10.247,10.247,0,0,1-1.259.488,5.734,5.734,0,0,1-1.363-.072c-0.861-.085-0.906-0.155-0.277-0.715a11.873,11.873,0,0,0,.935-1.186,0.43,0.43,0,0,0-.284-0.648,1.038,1.038,0,0,0-1.1.71c-0.152.1-.308,0.344-0.431,0.405a0.948,0.948,0,0,1-.3-0.749c-0.02-.025-0.057-0.068-0.02-0.079a7.218,7.218,0,0,0-.706-1.6c-0.412-.353-0.815.23-0.647,0.573a2.624,2.624,0,0,0,.1.5,4.068,4.068,0,0,0,.352.738c0.041,0.482.812,1.084,0.511,1.46-0.287.317-.488,0.6-0.739,0.9-0.441.478-.509,0.682,0.222,0.583,0.323-.039.775-0.685,0.882-0.275a0.368,0.368,0,0,1-.02.065,0.541,0.541,0,0,1,.013.362c0.013,0.006.018,0.032,0.029,0.036a0.326,0.326,0,0,1-.019.071,0.493,0.493,0,0,1,0,.256,2.859,2.859,0,0,1,.039.356c-0.016.015-.008,0.035-0.026,0.055,0.211,0.944-2.217,1.731-1.376,1.762,0.256-.036.846,0,0.46,0.338a1.58,1.58,0,0,0,1.112-.476,2.538,2.538,0,0,0,.473-0.473,1.854,1.854,0,0,0,.3-1.231,0.35,0.35,0,0,0-.008-0.222c0.011-.005.011-0.015,0.023-0.022-0.147-.475.1-0.347,0.475-0.239,0.417,0.04.909,0.175,1.306,0.17a0.757,0.757,0,0,0,.575-0.165c0.3-.2.7-0.379,1.029-0.614a1.245,1.245,0,0,0,.377-0.258,1.786,1.786,0,0,0,.433-0.59c0.1-.157.4-0.361,0.193-0.6A0.177,0.177,0,0,1,99,94.878ZM74.064,97.742c0.078-.4.224-0.642,0.284-0.983a1.218,1.218,0,0,0,.006-0.694,0.02,0.02,0,0,1-.013-0.033,0.119,0.119,0,0,1-.032-0.085c-0.084-.222-0.235-0.234-0.454-0.137-0.044.05-.215-0.036-0.22,0.071a0.722,0.722,0,0,0,.206.181,1.718,1.718,0,0,1-.074.7c0.028,0,.018.03,0,0.02a6.463,6.463,0,0,1-.207.761c0,0.018-.015.049-0.008,0.071a4.356,4.356,0,0,0-.211.583,1.405,1.405,0,0,0-.063.148,1.1,1.1,0,0,1-.562.177c-0.1.026,0.094-.336-0.08-0.178a0.757,0.757,0,0,1-.658.239,0.233,0.233,0,0,1-.185-0.053,0.883,0.883,0,0,1-.121-0.03c-0.237-.282-0.39.131-0.488,0.316-0.146.245,0.219,0.4,0.34,0.578a0.557,0.557,0,0,0,.172.266,1.376,1.376,0,0,0,.444-0.316c0.728-.429,1-0.646.733,0.419a1.493,1.493,0,0,0-.089.186c-0.008.09-.081,0.155-0.088,0.234-0.149.119-.391,0.228-0.559,0.371a0.837,0.837,0,0,0-.26.123c-0.368.154-.768,0.289-1.154,0.424-0.52.12-.5,0.284,0.037,0.429a5.381,5.381,0,0,1,.9-0.037c0.3,0.119.567-.343,0.849-0.3a1.435,1.435,0,0,1-.143,1.079,3.313,3.313,0,0,0,.107.754,0.453,0.453,0,0,0,.279.427c0,0.06.105-.009,0.141-0.032a1.271,1.271,0,0,0,.117-0.474c0.191-.668.165-1.387,0.385-2.043a2.362,2.362,0,0,1,.138-0.47,3.472,3.472,0,0,0,.805-0.617,0.42,0.42,0,0,0,.144-0.2,0.792,0.792,0,0,0,.131-0.3,0.082,0.082,0,0,1,.023,0,0.564,0.564,0,0,0-.024-0.355c-0.04-.181-0.2-0.238-0.293-0.06a1.443,1.443,0,0,0-.188.167c0.008,0.046-.066.048-0.06,0.093-0.428.466-.343-0.407-0.06-0.524a6.081,6.081,0,0,1,.627-0.212,1.053,1.053,0,0,0,.429-0.182,0.351,0.351,0,0,0,.143-0.236c-0.222-.009-0.338-0.042-0.494-0.037C74.3,97.788,73.777,98.521,74.064,97.742Zm-3.6.318c0.107-.573.647-1.669,0.045-1.937a0.6,0.6,0,0,0-.574.011c0-.009-0.016,0-0.024-0.009a1.03,1.03,0,0,0-.2.171,0.8,0.8,0,0,0-.245.235,0.493,0.493,0,0,0-.183.259c-0.151.066-.318,0.205-0.39,0.04a0.576,0.576,0,0,0-.235-0.493,0.613,0.613,0,0,0-.5.174c-0.028.16-.125,0.221-0.149,0.358a0.2,0.2,0,0,0-.021,0c0,0.027.008,0.046-.026,0.043,0,0.023-.013.045-0.01,0.073a0.067,0.067,0,0,1-.018,0c-0.056.248-.209,0.468-0.274,0.691-0.011-.006-0.01.009-0.021,0a0.1,0.1,0,0,1-.055.1,1.614,1.614,0,0,0-.075.24,0.556,0.556,0,0,0-.079.178c-0.114.134-.136,0.358-0.235,0.5a0.938,0.938,0,0,0-.07.225,1.9,1.9,0,0,0-.169.469,0.96,0.96,0,0,0-.117.354c-0.01,0-.008.01-0.023,0a0.278,0.278,0,0,1-.083.178,2.136,2.136,0,0,1-.139.382c-0.392.9,0.412,0.293,0.543,0.6,0.008,0.053-.054.058-0.052,0.117a1,1,0,0,0-.191.43c-0.094.162-.646,1.472,0.024,0.884,0.217-.192.39-0.3,0.58-0.465a0.758,0.758,0,0,1,.728-0.519,0.174,0.174,0,0,0,.1.07c0.24,0.209.444,0.6,0.7,0.785a0.815,0.815,0,0,0,.353.166c0.152,0.05.53,0.165,0.478-.187a6.987,6.987,0,0,1,.216-0.763,0.6,0.6,0,0,0-.224.119c0,0.029-.107.136-0.146,0.053,0.01,0,0-.016.008-0.02a0.792,0.792,0,0,1,.1-0.359,0.083,0.083,0,0,0,.046-0.084c0.042-.008.053-0.072,0.089-0.071a2.684,2.684,0,0,0,.162-0.442c0.023-.087.013-0.159,0.028-0.247,0.008,0,.01-0.007.014-0.007,0.075-.758.267-1.392,0.281-2.118A0.565,0.565,0,0,0,70.464,98.06Zm-1.614,3.118a4.2,4.2,0,0,0-.421-0.226,0.68,0.68,0,0,1,.781-0.668,7.268,7.268,0,0,0,.021.835,0.3,0.3,0,0,1,.052.2A2.494,2.494,0,0,1,68.85,101.178ZM70.025,97.3c-0.112.191-.079,0.554-0.2,0.73,0,0.005-.008.017,0,0.017a0.564,0.564,0,0,1-.055.091c0,0.009,0,.029.011,0.033a0.722,0.722,0,0,1-.06.164,1.706,1.706,0,0,0-.071.415c-0.1.26-.128,0.66-0.258,0.944-0.008,0-.006.011-0.018,0.006,0,0.342-.319.216-0.51,0.342a0.073,0.073,0,0,0-.07.022,2.358,2.358,0,0,1-.712.164c-0.151.041-.109-0.177-0.05-0.256a2.492,2.492,0,0,1,.13-0.461,0.28,0.28,0,0,0,.06-0.162,4.608,4.608,0,0,0,.584-0.1c0.344-.121.562-0.418,0.044-0.34a4.345,4.345,0,0,1-.5.148,1.676,1.676,0,0,1,.245-0.819c0.063-.026.039-0.141,0.087-0.142,0.036-.172.313,0.071,0.477,0.011,0.212-.08.523-0.444,0.1-0.29-0.692.1-.016-0.234-0.245-0.528a1.759,1.759,0,0,1,.412-0.276,0.69,0.69,0,0,1,.4-0.393C70.254,96.508,70.024,97,70.025,97.3Zm-16.28-9.906c-0.1.049-.279-0.042-0.288,0.082a0.394,0.394,0,0,0,.147.05,2.213,2.213,0,0,1,.831.173,1.651,1.651,0,0,1,.747.071,2.262,2.262,0,0,0,.5.523c0.193,0.017.525-.218,0.422-0.424-0.055-.035-0.047-0.072-0.109-0.108,0.023-.019-0.01-0.025-0.02-0.039a0.73,0.73,0,0,0-.669-0.385,1.523,1.523,0,0,0-.729.07,2.485,2.485,0,0,1-.64.016A1.053,1.053,0,0,1,53.745,87.393Zm-1.522.363s0.01-.012.01-0.018c0.35-.011.963-0.2,0.2-0.231-0.013-.027-0.024.008-0.047-0.026a0.142,0.142,0,0,1,.047-0.052c0.023,0.02.04-.032,0.06-0.044a0.061,0.061,0,0,0,.011.007,1.05,1.05,0,0,1,.39.009,0.194,0.194,0,0,0,.172.015,0.393,0.393,0,0,0,.2-0.1c0.014-.048.1-0.026,0.082-0.083,0.081-.365-0.5-0.215.112-0.748a1.456,1.456,0,0,0,.254-0.206c0.02,0.016.029-.013,0.041-0.024a0.426,0.426,0,0,0,.118-0.09,2.54,2.54,0,0,0,.421-0.338c0.426-.549.258-0.759-0.266-1.174-0.247-.223-0.412.407-0.587,0.508-0.415.379-.857,0.878-1.276,1.185-0.149.3-.489,0.1-0.713-0.005-0.632-.265-0.248.383-0.107,0.634,0.012,0.015.052,0.029,0.036,0.046,0.108,0.225-.274.353-0.365,0.528a1.617,1.617,0,0,1-1.045.223,0.766,0.766,0,0,1-.629-0.088c-0.044-.192-0.271-0.09-0.4-0.039-0.057.144-.088,0.315-0.268,0.307-0.233.009-1.583,0.353-1.133-.21a1.173,1.173,0,0,1,.254-0.426c0.018-.124.173-0.2-0.01-0.263a0.868,0.868,0,0,0-.143.121c-0.032,0-.088.094-0.12,0.094a7.792,7.792,0,0,1-.7.617,0.422,0.422,0,0,0-.219.311,4.308,4.308,0,0,0-.127.514c-0.17,1.089.65,0.2,1.05-.123a0.1,0.1,0,0,1,.015.009,5.418,5.418,0,0,1,1.222-.345c-0.081.17-.154,0.743,0.164,0.675a1.282,1.282,0,0,1,.23-0.181c0.019-.02.037-0.051,0.056-0.037,0-.019.029-0.036,0.034-0.051a2.765,2.765,0,0,1,.344-0.151c0.295-.12.643-0.2,0.206,0.161-0.04-.02-0.042.114-0.107,0.082a2.815,2.815,0,0,0-.272.294c-0.149.166-.248,0.475-0.408,0.639,0.021,0.051-.091.136-0.025,0.171a0.662,0.662,0,0,0,.718.526c0.6-.586,1.176-1.263,1.658-1.822A4.266,4.266,0,0,1,52.223,87.757ZM52.1,85.333a0.222,0.222,0,0,0,.071-0.283c0-.091-0.018-0.13-0.018-0.217a0.87,0.87,0,0,1-.065-0.129c-0.07-.087-0.1-0.158-0.173-0.246a1.3,1.3,0,0,0-.363-0.392c-0.041-.043-0.192-0.206-0.261-0.071a0.671,0.671,0,0,0-.013.3,2.681,2.681,0,0,1,0,.712A0.7,0.7,0,0,0,52.1,85.333Zm3.337,3.913c-0.243-.491-1.958.044-1.671-0.415,0.078-.344.139-0.946-0.248-1.017,0-.025-0.019,0-0.029-0.013a0.21,0.21,0,0,0-.191.264,5.145,5.145,0,0,1-.651.77c-0.248.222-.517,0.446-0.784,0.666a6.6,6.6,0,0,1-.561.39,0.078,0.078,0,0,0-.078.029c-0.018-.008-0.023,0-0.036.014a0.779,0.779,0,0,1-.109.041c-0.006.008-.011,0.016-0.018,0.023a0.049,0.049,0,0,1-.01-0.009c-0.323.165-.909,1.376-0.17,1.048,0,0,.008-0.009.006-0.014a2.4,2.4,0,0,0,.7-0.414,0.255,0.255,0,0,0,.076-0.048,1.78,1.78,0,0,0,.222-0.263c0.008,0,.013,0,0.019.007a0.544,0.544,0,0,0,.049-0.033,1.2,1.2,0,0,1,.162-0.076,0.094,0.094,0,0,1,.078-0.049,1.95,1.95,0,0,1,.17-0.115,0.813,0.813,0,0,0,.139-0.074,3.154,3.154,0,0,0,.4-0.274A0.912,0.912,0,0,0,53,89.639a4.2,4.2,0,0,1,.386-0.359c0.016-.012.029-0.05,0.05-0.035a0.194,0.194,0,0,0,.042-0.032c0.105,0-.01.144-0.036,0.151,0,0.041.057,0.046,0.015,0.09a1.656,1.656,0,0,1,.027.22,0.882,0.882,0,0,1-.326.575c-0.037.011-.078,0.109-0.136,0.134a12.357,12.357,0,0,0-1.078,1.322,0.571,0.571,0,0,0-.282.494,1.113,1.113,0,0,0,.588-0.1,1.6,1.6,0,0,1,.185-0.077,0.71,0.71,0,0,1,.125-0.081c0.026,0.023.042-.062,0.075-0.042a0.6,0.6,0,0,1,.126-0.081,1.062,1.062,0,0,0,.149-0.112,0.046,0.046,0,0,1,.015.008c0.011-.013.021-0.024,0.031-0.013a0.523,0.523,0,0,1,.078-0.063,0.28,0.28,0,0,1,.123-0.083c0.018-.016.024-0.043,0.047-0.026a1.1,1.1,0,0,1,.229-0.163,1.787,1.787,0,0,0,.692-0.986,0.587,0.587,0,0,0-.032-0.412c-0.112-.12.054-0.164,0.16-0.28,0.026,0.016.06-.029,0.047-0.054,0.007,0,.011-0.006.01-0.011,0.136-.076.284,0,0.476-0.075a0.156,0.156,0,0,0,.032.01c0.165-.053.306-0.135,0.439-0.162C55.3,89.351,55.44,89.346,55.433,89.246ZM50.1,85.2c-0.141-.006-0.52-0.494-0.544-0.167a0.668,0.668,0,0,0-.084.2,0.37,0.37,0,0,1-.02.1,0.284,0.284,0,0,1-.024.017c0.013,0.016.008,0.026-.007,0.032-0.05.118-.068,0.213-0.115,0.348a1.711,1.711,0,0,0,.194.227c0.066,0.072.144,0.521,0.334,0.4a0.808,0.808,0,0,0,.352-0.29,0.087,0.087,0,0,1,.024-0.07A1.264,1.264,0,0,0,50.1,85.2Zm31.362,15.408a0.4,0.4,0,0,0-.272-0.141c-0.1-.085.167-0.273,0.24-0.329,0.129-.192.3-0.242,0.439-0.451a0.137,0.137,0,0,0,.105-0.15c0.094-1.094-.459-0.151-0.833-0.036-0.083.068-.191-0.1-0.066-0.12a0.12,0.12,0,0,1,.027-0.11c0.034-.282.494-0.521,0.591-0.837a0.124,0.124,0,0,0,.049-0.117,0.651,0.651,0,0,0,.135-0.279,0.064,0.064,0,0,0,.026-0.072,0.387,0.387,0,0,0-.241-0.627c-0.182-.119-0.517.165-0.31-0.3,0.036-.165.162-0.273,0.181-0.429a0.035,0.035,0,0,1,.018-0.006c0.105-.21.377-0.184,0.475-0.385a0.65,0.65,0,0,0-.141-0.512c-0.078-.082-0.5-0.566-0.525-0.274-0.034,0-.011.051-0.011,0.074a0.051,0.051,0,0,1-.023.009,0.61,0.61,0,0,1,.008.083,0.54,0.54,0,0,0-.066.183,0.5,0.5,0,0,0-.076.224,0.18,0.18,0,0,0-.021.009,0.04,0.04,0,0,1,0,.048,0.945,0.945,0,0,1-.173.36,0.18,0.18,0,0,0,.008.048c-0.2.248-.311,0.526-0.551,0.785a9.327,9.327,0,0,1-.9,1.174,0.084,0.084,0,0,0-.021.008,0.433,0.433,0,0,1-.039.119c-0.6.637,0.569,1.089,0.185,1.583a1.094,1.094,0,0,0-.057.99c0.081,0.03.029,0.123,0.113,0.15,0.125,0.252.444,0.36,0.48,0.026,0.018,0,.058-0.063.058-0.006,0.076-.437.1,0.348,0.046,0.5,0,0.034.026,0.077-.016,0.074a1.382,1.382,0,0,1-.01.248,0.091,0.091,0,0,1-.018.009,0.914,0.914,0,0,0,.334.89c0.086,0.223.16,0.414,0.478,0.347,0.113-.039.13-0.21,0.229-0.25a1.66,1.66,0,0,0,.2-0.793c0.1-.1-0.037-0.337.06-0.464-0.015-.01,0-0.042-0.019-0.057A3.3,3.3,0,0,0,81.465,100.606Zm3.462-3.429c0.014,0,.008-0.009.018-0.009a0.363,0.363,0,0,1-.006-0.064,0.125,0.125,0,0,0,.019-0.006,0.628,0.628,0,0,1,.093-0.226c0.006-.107.109-0.18,0.112-0.289a0.286,0.286,0,0,0,.049-0.064c0-.01,0-0.022-0.007-0.023,0.238-.223.185-0.994-0.238-0.781-0.52.38-1,.807-1.53,1.14-0.295.213-.249,0.157-0.232,0.483a0.351,0.351,0,0,0,.306.159,0.23,0.23,0,0,1,.062.035c0.256-.024.011-0.319,0.144-0.443,0.5-.708,1.606-1.418.654-0.016,0.021,0.02-.021.041-0.032,0.056-0.1.2-.368,0.467-0.5,0.672-0.151.29-.409,0.416-0.528,0.677a7.243,7.243,0,0,1-.791.785c0.029,0.015,0,.025-0.011.031a0.956,0.956,0,0,0,.99-0.3A0.752,0.752,0,0,1,83.63,98.8c0.1-.091.345-0.523,0.462-0.288a0.888,0.888,0,0,1-.076.681,2.187,2.187,0,0,0-.833.778,0.792,0.792,0,0,1-.186.32c-0.065.14-.169,0.226,0.021,0.34a0.587,0.587,0,0,1,.016.075c0.341,0.557,1.045-.386,1.188.289-0.05.048-.138,0.138-0.173,0.094a0.612,0.612,0,0,0-.4.187c-0.686.42-.089,0.906,0.377,1.109a3.675,3.675,0,0,0,1.264-.4,1.926,1.926,0,0,0,.384-0.131c0.022,0,.022-0.044.048-0.022a6.9,6.9,0,0,0,.64-0.6,0.252,0.252,0,0,0-.007-0.176,0.67,0.67,0,0,0-.238-0.315,0.048,0.048,0,0,1-.075-0.029c-0.079,0-.123-0.071-0.193-0.065a0.114,0.114,0,0,0-.1-0.05,2.328,2.328,0,0,0-.3-0.087,0.533,0.533,0,0,1-.05-0.263c-0.011-.015,0-0.045-0.015-0.058,0.008,0,.008-0.014.021-0.011-0.026-.051.032-0.055,0-0.106a1.781,1.781,0,0,1,.377-0.477C86.006,99.2,85.5,99.229,85.4,98.93c0.18-.292-0.285-0.981.319-0.93a0.984,0.984,0,0,0,.974.033,0.187,0.187,0,0,0,.039-0.22C86.51,97.089,84.929,97.977,84.927,97.177ZM81.8,100.684a0.347,0.347,0,0,0,.138.262,0.307,0.307,0,0,1,.057.073,0.877,0.877,0,0,0,.632.4c0.052-.121.235,0,0.28-0.121a0.381,0.381,0,0,1-.008-0.1C82.787,100.823,82.054,100.293,81.8,100.684Zm-2.777,1.638a0.225,0.225,0,0,0-.269.357,0.534,0.534,0,0,0,.378.407,0.048,0.048,0,0,1,.047.008,0.761,0.761,0,0,0,.543-0.6c0.042-.008.041-0.07,0.024-0.1A0.751,0.751,0,0,1,79.028,102.322ZM60.37,92.15a1.168,1.168,0,0,0,.008-0.551c-0.1-.211-0.323-0.133-0.449-0.011a1.55,1.55,0,0,0-.295.394,1.032,1.032,0,0,1,.209.535C60.056,92.771,60.354,92.363,60.37,92.15Zm3.329,2.8a5.636,5.636,0,0,1-.731-0.156c-0.322-.015-0.65-0.121-0.993-0.149-1.7-.4-0.5-0.693-2.267-0.166a0.855,0.855,0,0,1-.224.053,0.045,0.045,0,0,1,0,.019,0.865,0.865,0,0,0-.088.013,0.032,0.032,0,0,1-.011.022c-0.267.071-.6,0.055-0.851,0.139a3.46,3.46,0,0,1-.825.05c-0.5.182-1.322-.133-0.53-0.61,0-.011.018-0.022,0.014-0.033,0.175-.089.388-0.155,0.546-0.245a0.752,0.752,0,0,0,.455-0.147c0.563-.416.561-2.22-0.324-0.882a2.7,2.7,0,0,1-.71.613c0.007,0.006-.006.012-0.011,0.02a2.066,2.066,0,0,0-.316.169,1.494,1.494,0,0,1-.243.094c-0.324.276-.859,0.2-1.021,0.655a5.762,5.762,0,0,1-.23.681c-0.122.678-.139,0.758,0.619,0.576a6.487,6.487,0,0,1,1.058-.222,1.728,1.728,0,0,1,.559-0.165c0.452-.175,1.09-0.215,1.566-0.385,0.026,0.016.027-.025,0.061-0.012-0.006-.007.008-0.014,0.01-0.021a0.047,0.047,0,0,0,.065-0.025,0.612,0.612,0,0,1,.086-0.011c0-.014.02-0.025,0.018-0.037a4.968,4.968,0,0,0,.618-0.251c0.058-.013.183-0.023,0.248-0.042a0.952,0.952,0,0,1,.327.436c0.194,0.245.463,0.594,0.058,0.813a0.147,0.147,0,0,1-.018-0.008,0.374,0.374,0,0,1-.287.093c-0.621.269,0.442,0.544,0.561,0.772,0.351,0.721-.758-0.278-1.02-0.379a4.478,4.478,0,0,0-.98-0.445,0.684,0.684,0,0,0-.551-0.18,0.62,0.62,0,0,0-.416.494,0.35,0.35,0,0,0,.011.278c0.02,0.5.281,0.458,0.676,0.576,0.159,0.006.287,0.112,0.449,0.11A6.307,6.307,0,0,1,60.93,98.3c0.64,0.65.546,0.582,1.431,0.354,0.11-.034.255-0.107,0.361-0.146a0.333,0.333,0,0,0,.1-0.084,0.824,0.824,0,0,0-.264-0.448c-0.306-.287-0.512-0.64-0.786-0.861a1.056,1.056,0,0,1-.3-0.308c-0.083-.217.408-0.194,0.557-0.312a2.055,2.055,0,0,0,.48-0.8,0.186,0.186,0,0,1,.295-0.006,1.527,1.527,0,0,1,.29.069,2.646,2.646,0,0,0,.579-0.118,0.052,0.052,0,0,1,.007-0.016,0.617,0.617,0,0,0,.261-0.093,1.167,1.167,0,0,1,.133-0.048c0.144-.132-0.008-0.194-0.089-0.316A0.272,0.272,0,0,0,63.7,94.954Z" transform="translate(-36.031 -26.031)"/>
</svg>
